<svg
        width="82"
        height="8"
        viewBox="0 0 82 8"
        fill="none"
        xmlns="http://www.w3.org/2000/svg"
      >
        <path
          d="M1 3.5C0.723858 3.5 0.5 3.72386 0.5 4C0.5 4.27614 0.723858 4.5 1 4.5V3.5ZM81.8536 4.35355C82.0488 4.15829 82.0488 3.84171 81.8536 3.64645L78.6716 0.464466C78.4763 0.269204 78.1597 0.269204 77.9645 0.464466C77.7692 0.659728 77.7692 0.976311 77.9645 1.17157L80.7929 4L77.9645 6.82843C77.7692 7.02369 77.7692 7.34027 77.9645 7.53553C78.1597 7.7308 78.4763 7.7308 78.6716 7.53553L81.8536 4.35355ZM1 4.5H81.5V3.5H1V4.5Z"
          fill="#4EAC4C"></path>
      </svg>