<svg width="100" height="101" viewBox="0 0 100 101" fill="none" xmlns="http://www.w3.org/2000/svg">
<g clip-path="url(#clip0_99_610)">
<path d="M0.975638 22.7541C3.67212 23.7878 6.34771 28.263 7.96529 31.6005L9.16411 34.615L15.9151 32.4308L15.0489 29.1626C14.5422 25.4541 15.1952 21.5988 15.2077 21.5277C15.353 20.7017 14.8014 19.9142 13.9754 19.7687C13.1506 19.6232 12.3618 20.1748 12.2161 21.0007C12.1854 21.1742 11.7456 23.7421 11.8278 26.8599L8.32818 16.6921C8.05532 15.8992 7.19146 15.4773 6.39771 15.7503C5.60454 16.0234 5.18286 16.8876 5.45572 17.6808L8.3104 25.9751C6.25318 22.7564 4.15611 20.7203 2.06294 19.9177C1.27993 19.6173 0.401419 20.0089 0.101028 20.7923C-0.199167 21.5753 0.192239 22.4539 0.975638 22.7541Z" fill="#77D057"/>
<path d="M65.345 27.6722H52.0853L47.5823 36.3054C47.4239 36.609 47.3413 36.9463 47.3413 37.2885V59.7381C47.3413 60.9121 48.2931 61.8638 49.4671 61.8638H67.963C69.137 61.8638 70.0888 60.9121 70.0888 59.7381V37.2885C70.0888 36.9461 70.0062 36.609 69.8478 36.3054L65.345 27.6722Z" fill="#E9EAEB"/>
<path d="M69.8478 36.3054L65.3448 27.6722H54.3774L59.1214 36.7676V61.8638H67.963C69.137 61.8638 70.0888 60.9121 70.0888 59.7381V37.2885C70.0888 36.9463 70.006 36.609 69.8478 36.3054Z" fill="#B9BBC1"/>
<path d="M67.5725 29.174H49.8574C49.1455 29.174 48.5684 28.5969 48.5684 27.885V25.9941C48.5684 25.2822 49.1455 24.7051 49.8574 24.7051H67.5727C68.2846 24.7051 68.8617 25.2822 68.8617 25.9941V27.885C68.8617 28.5969 68.2846 29.174 67.5725 29.174Z" fill="#FD9727"/>
<path d="M67.5726 24.7051H57.8921V29.174H67.5726C68.2845 29.174 68.8616 28.5969 68.8616 27.885V25.9941C68.8616 25.2822 68.2845 24.7051 67.5726 24.7051Z" fill="#F9662B"/>
<path d="M64.1816 53.9211H53.2479C52.7637 53.9211 52.3711 53.5285 52.3711 53.0443V39.9227C52.3711 39.4385 52.7637 39.0459 53.2479 39.0459H64.1818C64.666 39.0459 65.0586 39.4385 65.0586 39.9227V53.0443C65.0584 53.5285 64.6658 53.9211 64.1816 53.9211Z" fill="#5BDCFD"/>
<path d="M39.0852 19.0135V4.5238H31.6674V19.0135C31.6674 21.6666 30.6498 24.2187 28.8244 26.1441C26.999 28.0695 25.9814 30.6217 25.9814 33.2748V75.3377C25.9814 76.7771 27.1484 77.9441 28.5879 77.9441H42.1645C43.6039 77.9441 44.7709 76.7771 44.7709 75.3377V33.2746C44.7709 30.6215 43.7533 28.0693 41.9279 26.1439C40.1025 24.2187 39.0852 21.6666 39.0852 19.0135Z" fill="#602952"/>
<path d="M41.9277 26.1439C40.1023 24.2185 39.0848 21.6664 39.0848 19.0133V4.5238H31.667V19.0135C31.667 21.0963 31.0375 23.1154 29.8848 24.8193C30.2004 25.2859 30.5529 25.7302 30.9453 26.1441C32.7707 28.0695 33.7883 30.6217 33.7883 33.2748V75.3377C33.7883 76.7771 32.6213 77.9441 31.1818 77.9441H42.1643C43.6037 77.9441 44.7707 76.7771 44.7707 75.3377V33.2746C44.7707 30.6215 43.7531 28.0693 41.9277 26.1439Z" fill="#4C1C40"/>
<path d="M39.4524 15.6193V4.92576C39.4524 4.70369 39.2724 4.5238 39.0505 4.5238H31.7022C31.4802 4.5238 31.3003 4.70388 31.3003 4.92576V15.6193C31.3003 15.8414 31.4804 16.0213 31.7022 16.0213H39.0505C39.2724 16.0213 39.4524 15.8414 39.4524 15.6193Z" fill="#FED130"/>
<path d="M44.771 58.8389H33.9437C33.1251 58.8389 32.4614 58.1752 32.4614 57.3567V39.2413C32.4614 38.4227 33.1251 37.759 33.9437 37.759H44.771V58.8389Z" fill="#E8B19C"/>
<path d="M31.2045 77.2223L24.0022 35.1246C23.3725 31.4439 19.5938 29.2047 16.0629 30.4199L7.80805 33.2609C4.27719 34.4762 2.6768 38.5664 4.44574 41.8551L24.6766 79.4689C26.5538 82.9594 31.8729 81.1289 31.2045 77.2223Z" fill="#FD9727"/>
<path d="M31.2045 77.2223L24.0021 35.1246C23.3725 31.4439 19.5937 29.2047 16.0629 30.4199L11.582 31.9621L24.6766 79.4689C26.5537 82.9594 31.8729 81.1289 31.2045 77.2223Z" fill="#F9662B"/>
<path d="M17.3081 47.5889C17.0354 46.7959 16.1714 46.3739 15.3776 46.6469L8.5626 48.9924C8.4835 49.0196 8.40967 49.0545 8.33838 49.093L9.78564 51.784L16.3659 49.5194C17.1595 49.2463 17.5812 48.3821 17.3081 47.5889Z" fill="#FFB266"/>
<path d="M97.1888 88.7802H3.58174C2.36318 88.7802 1.37549 87.7926 1.37549 86.574V79.1947H99.9999V85.9693C99.9999 87.5217 98.7413 88.7802 97.1888 88.7802Z" fill="#5E566A"/>
<path d="M97.1889 88.7803H71.3721V49.8975H87.7322C88.5846 49.8975 89.4014 50.2387 90.0002 50.8451L99.0801 60.0371C99.6695 60.6338 100 61.4387 100 62.2775V85.9693C100 87.5217 98.7414 88.7803 97.1889 88.7803Z" fill="#D9DDE2"/>
<path d="M99.0799 60.0371L90 50.8451C89.401 50.2389 88.5842 49.8975 87.732 49.8975H78.1113L89.0471 60.9682V88.7801H97.1887C98.7412 88.7801 99.9998 87.5215 99.9998 85.9689V62.2773C99.9998 61.4387 99.6693 60.6338 99.0799 60.0371Z" fill="#B9BBC1"/>
<path d="M76.8398 69.1715V57.0904C76.8398 56.3633 77.4293 55.7738 78.1564 55.7738H86.2295C86.5814 55.7738 86.9188 55.9148 87.1662 56.1652L94.1521 63.2373C94.3955 63.4838 94.532 63.8162 94.532 64.1625V69.1715C94.532 69.8986 93.9426 70.4881 93.2154 70.4881H78.1564C77.4293 70.4881 76.8398 69.8986 76.8398 69.1715Z" fill="#5BDCFD"/>
<path d="M85.0352 96.4763C89.8072 96.4763 93.6758 92.6078 93.6758 87.8357C93.6758 83.0636 89.8072 79.1951 85.0352 79.1951C80.2631 79.1951 76.3945 83.0636 76.3945 87.8357C76.3945 92.6078 80.2631 96.4763 85.0352 96.4763Z" fill="#602952"/>
<path d="M85.0352 91.1736C86.8786 91.1736 88.373 89.6792 88.373 87.8357C88.373 85.9922 86.8786 84.4978 85.0352 84.4978C83.1917 84.4978 81.6973 85.9922 81.6973 87.8357C81.6973 89.6792 83.1917 91.1736 85.0352 91.1736Z" fill="#D9DDE2"/>
<path d="M1.37549 82.6984H71.3722V48.2191C71.3722 46.9123 70.3128 45.8529 69.006 45.8529H3.74189C2.43506 45.8529 1.37568 46.9123 1.37568 48.2191V82.6984H1.37549Z" fill="#AED559"/>
<path d="M69.0057 45.8529H60.4023V82.6986H71.3719V48.2191C71.3719 46.9123 70.3125 45.8529 69.0057 45.8529Z" fill="#7FAB38"/>
<path d="M18.6562 96.4763C23.4283 96.4763 27.2969 92.6078 27.2969 87.8357C27.2969 83.0636 23.4283 79.1951 18.6562 79.1951C13.8842 79.1951 10.0156 83.0636 10.0156 87.8357C10.0156 92.6078 13.8842 96.4763 18.6562 96.4763Z" fill="#602952"/>
<path d="M18.6562 91.1736C20.4997 91.1736 21.9941 89.6792 21.9941 87.8357C21.9941 85.9922 20.4997 84.4978 18.6562 84.4978C16.8128 84.4978 15.3184 85.9922 15.3184 87.8357C15.3184 89.6792 16.8128 91.1736 18.6562 91.1736Z" fill="#D9DDE2"/>
<path d="M29.4706 55.1227C28.6317 55.1227 27.9517 55.8028 27.9517 56.6416V70.4881C27.9517 71.327 28.6315 72.0071 29.4706 72.0071C30.3097 72.0071 30.9896 71.327 30.9896 70.4881V56.6416C30.9896 55.8028 30.3097 55.1227 29.4706 55.1227Z" fill="white"/>
<path d="M43.6229 55.1227C42.7841 55.1227 42.104 55.8028 42.104 56.6416V70.4881C42.104 71.327 42.7839 72.0071 43.6229 72.0071C44.4618 72.0071 45.1419 71.327 45.1419 70.4881V56.6416C45.1419 55.8028 44.4618 55.1227 43.6229 55.1227Z" fill="white"/>
<path d="M7.90068 45.8529L15.8399 43.1855C16.6331 42.9125 17.0548 42.0482 16.7819 41.255C16.5093 40.4623 15.6452 40.04 14.8515 40.313L5.38037 43.5929L6.5958 45.8527L7.90068 45.8529Z" fill="#FED130"/>
<path d="M15.3153 55.1227C14.4765 55.1227 13.7964 55.8028 13.7964 56.6416V70.4881C13.7964 71.327 14.4763 72.0071 15.3153 72.0071C16.1542 72.0071 16.8343 71.327 16.8343 70.4881V56.6416C16.8341 55.8028 16.1542 55.1227 15.3153 55.1227Z" fill="white"/>
<path d="M57.7758 55.1227C56.9369 55.1227 56.2568 55.8028 56.2568 56.6416V70.4881C56.2568 71.327 56.9367 72.0071 57.7758 72.0071C58.6148 72.0071 59.2947 71.327 59.2947 70.4881V56.6416C59.2945 55.8028 58.6147 55.1227 57.7758 55.1227Z" fill="white"/>
</g>
<defs>
<clipPath id="clip0_99_610">
<rect width="100" height="100" fill="white" transform="translate(0 0.5)"/>
</clipPath>
</defs>
</svg>
