<svg width="25" height="25" viewBox="0 0 25 25" fill="none" xmlns="http://www.w3.org/2000/svg">
<path d="M5.82495 8.09141C6.2666 6.11104 7.39717 3.96216 9.052 3.96216C10.6704 3.96216 11.7873 6.01729 12.2488 7.9602" stroke="white" stroke-miterlimit="10" stroke-linecap="round" stroke-linejoin="round"/>
<path d="M12.7161 7.99272C13.1728 6.04033 14.2932 3.96216 15.9206 3.96216C17.5754 3.96216 18.706 6.11104 19.1476 8.09141" stroke="white" stroke-miterlimit="10" stroke-linecap="round" stroke-linejoin="round"/>
<path d="M2.25415 12.9772C2.54819 10.8334 3.74854 8.09143 5.61782 8.09143C7.48711 8.09143 8.6875 10.8334 8.98149 12.9772" stroke="white" stroke-miterlimit="10" stroke-linecap="round" stroke-linejoin="round"/>
<path d="M9.1438 12.8312C9.47104 10.7111 10.6591 8.09143 12.4862 8.09143C14.3031 8.09143 15.488 10.6818 15.823 12.7955" stroke="white" stroke-miterlimit="10" stroke-linecap="round" stroke-linejoin="round"/>
<path d="M16.0344 12.6947C16.3905 10.6003 17.5666 8.09131 19.3547 8.09131C21.1942 8.09131 22.3859 10.7465 22.7036 12.8741" stroke="white" stroke-miterlimit="10" stroke-linecap="round" stroke-linejoin="round"/>
<path d="M0.732422 12.9772V15.3837C0.732422 15.8876 1.14087 16.2961 1.64478 16.2961H2.42432L3.66143 21.0327C3.66221 21.0358 3.66499 21.0379 3.66816 21.0379H7.53457C7.53774 21.0379 7.54053 21.0358 7.54131 21.0327L7.98325 19.3406H10.0768L10.5187 21.0327C10.5195 21.0358 10.5223 21.0379 10.5254 21.0379H14.4088C14.412 21.0379 14.4148 21.0358 14.4156 21.0327L14.8575 19.3406H16.951L17.393 21.0327C17.3938 21.0358 17.3965 21.0379 17.3997 21.0379H21.2831C21.2863 21.0379 21.2891 21.0358 21.2898 21.0327L22.527 16.2961H23.3552C23.8591 16.2961 24.2676 15.8876 24.2676 15.3837V12.9772H0.732422Z" stroke="white" stroke-miterlimit="10" stroke-linecap="round" stroke-linejoin="round"/>
</svg>
