<svg width="28" height="25" viewBox="0 0 28 25" fill="none" xmlns="http://www.w3.org/2000/svg">
<path d="M5.38533 19.7918C4.84789 19.7918 4.3995 19.6314 4.04017 19.3106C3.68083 18.9897 3.50078 18.5891 3.5 18.1085V6.89183C3.5 6.41197 3.68006 6.01162 4.04017 5.69079C4.40028 5.36995 4.84828 5.20919 5.38417 5.2085H22.6158C23.1525 5.2085 23.6005 5.36926 23.9598 5.69079C24.3192 6.01232 24.4992 6.41266 24.5 6.89183V18.1095C24.5 18.5887 24.3199 18.9891 23.9598 19.3106C23.5997 19.6321 23.1517 19.7925 22.6158 19.7918H5.38533ZM14 12.621L4.66667 7.17204V18.1095C4.66667 18.2963 4.73394 18.4498 4.8685 18.57C5.00306 18.6901 5.17533 18.7502 5.38533 18.7502H22.6158C22.8251 18.7502 22.9969 18.6901 23.1315 18.57C23.2661 18.4498 23.3333 18.296 23.3333 18.1085V7.171L14 12.621ZM14 11.4585L22.974 6.25016H5.026L14 11.4585ZM4.66667 7.17204V6.25016V18.1095C4.66667 18.2963 4.73394 18.4498 4.8685 18.57C5.00306 18.6901 5.17533 18.7502 5.38533 18.7502H4.66667V7.17204Z" fill="white"/>
</svg>
