<svg width="25" height="25" viewBox="0 0 25 25" fill="none" xmlns="http://www.w3.org/2000/svg">
<path d="M12.5 13.3337C13.4255 13.3337 14.3131 12.966 14.9675 12.3116C15.622 11.6572 15.9896 10.7696 15.9896 9.84408C15.9896 8.91858 15.622 8.03099 14.9675 7.37657C14.3131 6.72214 13.4255 6.35449 12.5 6.35449C11.5745 6.35449 10.6869 6.72214 10.0325 7.37657C9.37809 8.03099 9.01044 8.91858 9.01044 9.84408C9.01044 10.7696 9.37809 11.6572 10.0325 12.3116C10.6869 12.966 11.5745 13.3337 12.5 13.3337Z" stroke="white" stroke-miterlimit="10" stroke-linecap="round"/>
<path d="M12.5 2.86475C5.52085 2.86475 4.35731 8.68037 5.52085 13.0887C6.54481 16.9512 9.6146 19.5908 11.6396 21.7554C11.7486 21.8752 11.8815 21.9709 12.0297 22.0363C12.1778 22.1018 12.338 22.1356 12.5 22.1356C12.662 22.1356 12.8222 22.1018 12.9704 22.0363C13.1185 21.9709 13.2514 21.8752 13.3604 21.7554C15.3844 19.5908 18.4552 16.9512 19.4792 13.0887C20.6427 8.68037 19.4792 2.86475 12.5 2.86475Z" stroke="white" stroke-miterlimit="10" stroke-linecap="round"/>
</svg>
