<svg width="25" height="25" viewBox="0 0 25 25" fill="none" xmlns="http://www.w3.org/2000/svg">
<mask id="mask0_35_411" style="mask-type:luminance" maskUnits="userSpaceOnUse" x="0" y="0" width="25" height="25">
<path d="M0 1.90735e-06H25V25H0V1.90735e-06Z" fill="white"/>
</mask>
<g mask="url(#mask0_35_411)">
<path d="M18.231 17.6489C18.2656 17.4917 18.2837 17.3286 18.2837 17.1611C18.2837 17.3286 18.3018 17.4917 18.3364 17.6489C18.3188 17.6494 18.3013 17.6494 18.2837 17.6494C18.2661 17.6494 18.2485 17.6494 18.231 17.6489Z" stroke="white" stroke-miterlimit="10" stroke-linejoin="round"/>
<path d="M21.6685 14.2646C21.6685 14.5688 21.6284 14.8638 21.5527 15.144C21.248 14.9912 20.9043 14.9048 20.54 14.9048C19.2939 14.9048 18.2837 15.915 18.2837 17.1611C18.2837 15.915 17.2734 14.9048 16.0273 14.9048C15.6631 14.9048 15.3193 14.9912 15.0146 15.144C14.939 14.8638 14.8989 14.5688 14.8989 14.2646C14.8989 13.8604 14.9702 13.4717 15.1001 13.1123C15.1001 13.1118 15.1001 13.1118 15.1006 13.1113C15.2036 12.8276 15.3433 12.5605 15.5146 12.3184C15.5142 12.3179 15.5146 12.3179 15.5151 12.3174C16.1274 11.4478 17.1392 10.8799 18.2837 10.8799C20.1528 10.8799 21.6685 12.395 21.6685 14.2646Z" stroke="white" stroke-miterlimit="10" stroke-linejoin="round"/>
<path d="M16.6851 10.3916C16.2637 11.0161 15.874 11.6587 15.5152 12.3174C15.5142 12.3179 15.5137 12.3184 15.5137 12.3193C15.5132 12.3198 15.5132 12.3208 15.5127 12.3213C15.3706 12.5825 15.2329 12.8452 15.1006 13.1113C15.1001 13.1118 15.0996 13.1123 15.0996 13.1128C14.2705 14.7749 13.6294 16.5283 13.169 18.3359C13.0742 18.707 12.9395 19.0698 12.7637 19.4175H3.21095C2.20363 17.4077 2.54152 14.8848 4.21144 13.2207C4.91408 12.5205 5.76271 12.0566 6.65968 11.8281C8.07423 11.4678 9.45509 10.9966 10.7857 10.4116C12.1157 9.82666 13.395 9.12793 14.605 8.31152L16.6851 10.3916Z" stroke="white" stroke-miterlimit="10" stroke-linejoin="round"/>
<path d="M21.8858 7.27124C22.5126 6.64438 22.5126 5.62798 21.8858 5.00112C21.4914 4.60669 20.9428 4.46064 20.434 4.56255C20.5359 4.05376 20.3899 3.50518 19.9955 3.11079C19.3686 2.48389 18.3522 2.48389 17.7253 3.11079C17.1305 3.70566 17.1005 4.65103 17.6346 5.28169L14.605 8.31138L16.6852 10.3916L19.7148 7.36191C20.3456 7.89604 21.2909 7.86611 21.8858 7.27124Z" stroke="white" stroke-miterlimit="10" stroke-linejoin="round"/>
<path d="M24.2676 19.4175C24.2676 20.23 23.9385 20.9653 23.4062 21.498C22.8735 22.0303 22.1382 22.3594 21.3257 22.3594H3.67432C2.04932 22.3594 0.732422 21.0425 0.732422 19.4175H24.2676Z" stroke="white" stroke-miterlimit="10" stroke-linejoin="round"/>
<path d="M18.2837 17.1611C18.2837 17.3286 18.2656 17.4917 18.231 17.6489C18.0078 18.6606 17.106 19.4175 16.0273 19.4175C14.7808 19.4175 13.7705 18.4072 13.7705 17.1611C13.7705 16.2793 14.2769 15.5151 15.0146 15.144C15.3193 14.9912 15.6631 14.9048 16.0273 14.9048C17.2734 14.9048 18.2837 15.915 18.2837 17.1611Z" stroke="white" stroke-miterlimit="10" stroke-linejoin="round"/>
<path d="M22.7969 17.1611C22.7969 18.4072 21.7861 19.4175 20.54 19.4175C19.4614 19.4175 18.5596 18.6606 18.3364 17.6489C18.3018 17.4917 18.2837 17.3286 18.2837 17.1611C18.2837 15.915 19.2939 14.9048 20.54 14.9048C20.9043 14.9048 21.248 14.9912 21.5527 15.144C22.2905 15.5151 22.7969 16.2793 22.7969 17.1611Z" stroke="white" stroke-miterlimit="10" stroke-linejoin="round"/>
</g>
</svg>
