<svg width="100" height="101" viewBox="0 0 100 101" fill="none" xmlns="http://www.w3.org/2000/svg">
<g clip-path="url(#clip0_99_706)">
<path d="M68.7139 72.9561L70.7387 72.4114L76.6559 94.4944C76.9478 95.5844 75.9195 96.5666 74.8441 96.2247L66.5186 93.5782L60.632 100.033C59.8717 100.867 58.49 100.531 58.1978 99.4409L52.6318 78.6735L68.7139 72.9561Z" fill="#AED559"/>
<path d="M31.3419 72.9883L47.3608 78.6983L41.8028 99.4409C41.5106 100.531 40.129 100.867 39.3686 100.033L33.4823 93.5786L25.1565 96.2249C24.0809 96.5667 23.0526 95.5846 23.3448 94.4944L29.2577 72.4319L31.3419 72.9883Z" fill="#AED559"/>
<path d="M78.7036 70.2703L69.0833 72.8568C68.8413 72.9218 68.6206 73.0496 68.4434 73.2269L61.4051 80.2771C61.0448 80.6381 60.5192 80.7795 60.0262 80.6478L50.4014 78.0777C50.1592 78.013 49.9044 78.0132 49.6624 78.0783L40.0421 80.6648C39.5495 80.7972 39.0235 80.6568 38.6626 80.2964L31.6124 73.2582C31.435 73.081 31.2141 72.9539 30.9719 72.8892L21.3471 70.3191C20.8544 70.1875 20.469 69.8029 20.3366 69.3103L17.7501 59.6902C17.685 59.4482 17.5573 59.2275 17.3799 59.0504L10.3297 52.0121C9.96881 51.6517 9.8274 51.1261 9.95904 50.6332L12.5292 41.0084C12.5938 40.7662 12.5936 40.5113 12.5286 40.2693L9.94205 30.649C9.80963 30.1564 9.95006 29.6304 10.3104 29.2695L17.3487 22.2193C17.5258 22.042 17.653 21.8211 17.7176 21.5789L20.2878 11.9541C20.4194 11.4613 20.804 11.0759 21.2965 10.9435L30.9169 8.35699C31.1589 8.29195 31.3796 8.16422 31.5567 7.98688L38.595 0.93668C38.9553 0.575743 39.4809 0.434337 39.9739 0.565977L49.5987 3.13609C49.8409 3.20074 50.0958 3.20055 50.3378 3.13551L59.9581 0.548985C60.4506 0.416563 60.9766 0.556993 61.3376 0.917345L68.3878 7.95563C68.5651 8.13277 68.786 8.25992 69.0282 8.32457L78.653 10.8947C79.1458 11.0263 79.5311 11.4109 79.6635 11.9035L82.2501 21.5238C82.3151 21.7658 82.4428 21.9865 82.6202 22.1636L89.6704 29.2019C90.0313 29.5623 90.1727 30.0879 90.0411 30.5808L87.471 40.2056C87.4063 40.4478 87.4065 40.7027 87.4715 40.9447L90.0581 50.565C90.1905 51.0576 90.0501 51.5836 89.6897 51.9445L82.6514 58.9947C82.4743 59.172 82.3471 59.3929 82.2825 59.6351L79.7124 69.2599C79.5807 69.7527 79.1964 70.1379 78.7036 70.2703Z" fill="#FFC344"/>
<path d="M50 71.2036C66.8981 71.2036 80.5967 57.505 80.5967 40.6069C80.5967 23.7089 66.8981 10.0103 50 10.0103C33.1019 10.0103 19.4033 23.7089 19.4033 40.6069C19.4033 57.505 33.1019 71.2036 50 71.2036Z" fill="#FEE97D"/>
<path d="M57.1393 70.3656C54.8486 70.9142 52.458 71.2039 50 71.2039C33.1023 71.2039 19.4033 57.5046 19.4033 40.6072C19.4033 23.7097 33.1023 10.0105 50 10.0105C52.458 10.0105 54.8486 10.3001 57.1393 10.8488C43.685 14.0634 33.6818 26.1675 33.6818 40.6072C33.6818 55.0468 43.6848 67.1509 57.1393 70.3656Z" fill="#FEE45A"/>
<path d="M62.3129 52.5403H63.882C65.6152 52.5403 67.0201 53.9452 67.0201 55.6784C67.0201 57.4116 65.6152 58.8165 63.882 58.8165H47.051C46.2033 58.8165 45.3832 58.5293 44.7105 58.0135C42.9365 56.6532 41.0592 56.3651 38.7773 56.2295V36.2747C44.1436 30.1434 50.9439 29.5672 50.468 20.4051C50.3855 18.8198 51.649 17.4885 53.2365 17.4885C54.4508 17.4885 55.5305 18.2766 55.885 19.4381C57.3252 24.159 57.6854 28.8442 55.784 33.7118H67.26C68.9932 33.7118 70.398 35.1166 70.398 36.8499C70.398 38.5831 68.9932 39.9879 67.26 39.9879H63.3561H66.1973C67.9305 39.9879 69.3354 41.3928 69.3354 43.126C69.3354 44.8592 67.9305 46.2641 66.1973 46.2641H63.3561H65.1541C66.8873 46.2641 68.2922 47.669 68.2922 49.4022C68.2922 51.1354 66.8873 52.5403 65.1541 52.5403H62.3129Z" fill="#FFF3DE"/>
<path d="M38.7773 34.1186V36.2747L39.7973 37.1047V55.1057L38.7773 56.2295V58.2184C38.7773 59.0071 38.1381 59.6463 37.3494 59.6463H26.049C21.8879 54.4204 19.4033 47.8034 19.4033 40.6071C19.4033 37.8698 19.7623 35.2159 20.4375 32.6907H37.3492C38.1381 32.6907 38.7773 33.3299 38.7773 34.1186Z" fill="#8AC9FE"/>
<path d="M62.3129 52.5403H63.882C65.6152 52.5403 67.0201 53.9452 67.0201 55.6784C67.0201 57.4116 65.6152 58.8165 63.882 58.8165H47.051C46.2033 58.8165 45.3832 58.5293 44.7105 58.0135C42.9365 56.6532 41.0592 56.3651 38.7773 56.2295V36.2747C44.1436 30.1434 50.9439 29.5672 50.468 20.4051C50.3855 18.8198 51.649 17.4885 53.2365 17.4885C54.4508 17.4885 55.5305 18.2766 55.885 19.4381C57.3252 24.159 57.6854 28.8442 55.784 33.7118H67.26C68.9932 33.7118 70.398 35.1166 70.398 36.8499C70.398 38.5831 68.9932 39.9879 67.26 39.9879H63.3561H66.1973C67.9305 39.9879 69.3354 41.3928 69.3354 43.126C69.3354 44.8592 67.9305 46.2641 66.1973 46.2641H63.3561H65.1541C66.8873 46.2641 68.2922 47.669 68.2922 49.4022C68.2922 51.1354 66.8873 52.5403 65.1541 52.5403H62.3129Z" fill="#F1B0A2"/>
<path d="M57.0422 28.1423C54.9535 30.5769 51.7803 32.1698 48.8397 35.0528C48.1031 35.7749 47.6826 36.7597 47.6826 37.7909V52.8493C47.6826 54.6229 48.8818 56.1923 50.6068 56.6042C52.0111 56.9395 53.2811 57.5665 54.5246 58.8163H47.0504C46.2031 58.8163 45.383 58.5294 44.7105 58.014C42.9363 56.6542 41.0588 56.3657 38.7773 56.23V36.2753C44.1473 30.1395 50.9535 29.5671 50.4662 20.3856C50.3836 18.8081 51.6557 17.4888 53.2357 17.4888C53.8426 17.4888 54.4176 17.686 54.8832 18.0282C55.3488 18.3704 55.7076 18.8563 55.8844 19.4378C56.7688 22.3358 57.2459 25.22 57.0422 28.1423Z" fill="#EB9C8D"/>
<path d="M70.8285 76.6116L63.0615 84.3918C62.7014 84.7526 62.5609 85.2778 62.6928 85.7702L65.1783 95.0471L60.632 100.033C59.8717 100.867 58.4898 100.531 58.1979 99.4409L52.6318 78.6737L60.026 80.6481C60.5195 80.7786 61.0459 80.6379 61.4049 80.2768L68.4441 73.2274C68.6217 73.0499 68.842 72.9213 69.0846 72.8561L70.7389 72.4114L71.7955 76.3522L70.8285 76.6116Z" fill="#7FAB38"/>
<path d="M47.3608 78.6981L46.1411 83.2489L38.5854 85.2823C38.2423 85.3747 37.8761 85.2768 37.6245 85.0256C37.0833 84.485 36.1598 84.7327 35.9616 85.4717L33.7186 93.8395L33.4821 93.5784L25.1565 96.2249C24.0809 96.5667 23.0526 95.5846 23.3448 94.4944L29.2577 72.4319L30.9731 72.8887C31.2137 72.954 31.4362 73.0805 31.6116 73.2579L38.6632 80.2971C39.0243 80.6561 39.5505 80.7969 40.0421 80.6643L47.3608 78.6981Z" fill="#7FAB38"/>
</g>
<defs>
<clipPath id="clip0_99_706">
<rect width="100" height="100" fill="white" transform="translate(0 0.5)"/>
</clipPath>
</defs>
</svg>
