<svg width="60" height="60" viewBox="0 0 60 60" fill="none" xmlns="http://www.w3.org/2000/svg">
<g clip-path="url(#clip0_82_353)">
<path d="M37.8947 0C33.5346 0 30 3.53461 30 7.89469C30 3.53461 26.4654 0 22.1053 0C17.7452 0 14.2106 3.53461 14.2106 7.89469C14.2106 12.2548 17.7452 15.7894 22.1053 15.7894H30H37.8947C42.2548 15.7894 45.7894 12.2548 45.7894 7.89469C45.7894 3.53461 42.2549 0 37.8947 0ZM25.2632 11.0527H22.1053C20.3612 11.0527 18.9475 9.63891 18.9475 7.8948C18.9475 6.1507 20.3612 4.73695 22.1053 4.73695C23.8494 4.73695 25.2632 6.1507 25.2632 7.8948V11.0527ZM37.8947 11.0527H34.7368V7.89469C34.7368 6.15059 36.1506 4.73684 37.8947 4.73684C39.6388 4.73684 41.0525 6.15059 41.0525 7.89469C41.0525 9.63879 39.6388 11.0527 37.8947 11.0527Z" fill="#F49751"/>
<path d="M37.8947 0C37.0693 0 36.2741 0.127148 35.5262 0.361875C38.7291 1.36793 41.0525 4.35973 41.0525 7.89469C41.0525 12.2548 37.5179 15.7894 33.1578 15.7894H37.8947C42.2548 15.7894 45.7894 12.2548 45.7894 7.89469C45.7894 3.53461 42.2549 0 37.8947 0Z" fill="#FFC269"/>
<path d="M53.6843 26.8422H6.3158V55C6.3158 57.7614 8.55437 60 11.3158 60H48.6843C51.4457 60 53.6843 57.7614 53.6843 55V26.8422Z" fill="#EAC89F"/>
<path d="M6.3158 26.8422V31.579H45.7895V60H48.6842C51.4456 60 53.6842 57.7614 53.6842 55V26.8422H6.3158Z" fill="#F4DBB3"/>
<path d="M50.5263 15.7896H9.4736C5.9855 15.7896 3.15784 18.6172 3.15784 22.1053C3.15784 25.5934 5.9855 28.4211 9.4736 28.4211H50.5263C54.0144 28.4211 56.842 25.5934 56.842 22.1053C56.842 18.6172 54.0144 15.7896 50.5263 15.7896Z" fill="#D2AF8C"/>
<path d="M50.5262 15.7896H50.2631C49.5364 15.7896 48.9473 16.3786 48.9473 17.1053V27.1053C48.9473 27.832 49.5364 28.4211 50.2631 28.4211H50.5263C54.0144 28.4211 56.842 25.5934 56.842 22.1053C56.842 18.6172 54.0143 15.7896 50.5262 15.7896Z" fill="#C69B75"/>
<path d="M34.7369 15.7896H25.2632V60.0001H34.7369V15.7896Z" fill="#FFA95F"/>
<path d="M34.7369 28.421H25.2632V31.5789H34.7369V28.421Z" fill="#FFC269"/>
<path d="M22.1053 0C21.2799 0 20.4847 0.127148 19.7368 0.361875C22.9397 1.36793 25.2631 4.35973 25.2631 7.89469V11.0525V15.7894H30V7.89469C30 3.53461 26.4654 0 22.1053 0Z" fill="#FFC269"/>
</g>
<defs>
<clipPath id="clip0_82_353">
<rect width="60" height="60" fill="white"/>
</clipPath>
</defs>
</svg>
