<svg width="30" height="30" viewBox="0 0 30 30" fill="none" xmlns="http://www.w3.org/2000/svg">
<path d="M26.6686 3.24604C26.5555 3.14838 26.418 3.08346 26.2707 3.05826C26.1235 3.03306 25.9721 3.04856 25.833 3.10307L2.08382 12.3972C1.79495 12.5102 1.55055 12.7139 1.38733 12.9777C1.2241 13.2415 1.15086 13.5511 1.17859 13.86C1.20633 14.169 1.33356 14.4606 1.54116 14.6911C1.74876 14.9216 2.02553 15.0785 2.32991 15.1382L8.6721 16.3839V23.4374C8.67223 23.7644 8.77008 24.0839 8.95308 24.3549C9.13608 24.6259 9.39589 24.8361 9.69916 24.9584C10.0024 25.0807 10.3353 25.1095 10.6551 25.0413C10.9749 24.973 11.267 24.8108 11.494 24.5753L14.6158 21.3374L19.4885 25.6089C19.786 25.8722 20.1694 26.0176 20.5666 26.0179C20.7401 26.0176 20.9125 25.9903 21.0776 25.9371C21.3483 25.8514 21.5918 25.6963 21.7838 25.4872C21.9759 25.278 22.1097 25.0222 22.1721 24.7453L26.9323 4.05111C26.9657 3.90563 26.9589 3.75377 26.9124 3.6119C26.8659 3.47004 26.7816 3.34354 26.6686 3.24604ZM2.58421 13.7542C2.57972 13.7421 2.57972 13.7288 2.58421 13.7167C2.58949 13.7126 2.59543 13.7095 2.60179 13.7074L21.3178 6.3808L9.21233 15.0527L2.60179 13.7589L2.58421 13.7542ZM10.4815 23.598C10.4492 23.6315 10.4076 23.6546 10.3621 23.6645C10.3166 23.6743 10.2692 23.6703 10.226 23.6531C10.1828 23.6359 10.1456 23.6062 10.1193 23.5678C10.093 23.5294 10.0788 23.484 10.0783 23.4374V17.3566L13.5576 20.4035L10.4815 23.598ZM20.8022 24.4277C20.7935 24.4673 20.7744 24.5039 20.7468 24.5336C20.7191 24.5632 20.684 24.585 20.6451 24.5964C20.6055 24.6104 20.5628 24.6134 20.5215 24.6051C20.4803 24.5969 20.442 24.5777 20.4108 24.5496L10.5049 15.8601L25.1955 5.33197L20.8022 24.4277Z" fill="#4EAC4C"/>
</svg>
