<svg width="25" height="25" viewBox="0 0 25 25" fill="none" xmlns="http://www.w3.org/2000/svg">
<g clip-path="url(#clip0_35_266)">
<mask id="mask0_35_266" style="mask-type:luminance" maskUnits="userSpaceOnUse" x="0" y="0" width="25" height="25">
<path d="M0 1.90735e-06H25V25H0V1.90735e-06Z" fill="white"/>
</mask>
<g mask="url(#mask0_35_266)">
<path d="M24.2675 0.732398V1.65183C24.2675 3.07219 23.703 4.43489 22.6985 5.43943H22.698C21.6935 6.44397 20.3312 7.00842 18.9105 7.00842H17.9915V6.08899C17.9915 4.66863 18.5555 3.30598 19.5601 2.30139H19.5604C20.565 1.29685 21.9273 0.732398 23.348 0.732398H24.2675Z" stroke="white" stroke-miterlimit="10" stroke-linecap="round" stroke-linejoin="round"/>
<path d="M0.732422 24.2676L6.22397 18.776" stroke="white" stroke-miterlimit="10" stroke-linecap="round" stroke-linejoin="round"/>
<path d="M17.9915 5.04721C17.9915 6.30321 17.4925 7.50741 16.6044 8.39506C16.0941 8.90575 15.6379 9.362 15.6379 9.362C15.6379 9.362 15.1817 8.90575 14.671 8.39506C13.783 7.50741 13.2844 6.30321 13.2844 5.04721C13.2844 3.7912 13.783 2.587 14.671 1.69935L15.6379 0.732411C15.6379 0.732411 16.0941 1.18861 16.6044 1.69935C17.4925 2.587 17.9915 3.7912 17.9915 5.04721Z" stroke="white" stroke-miterlimit="10" stroke-linecap="round" stroke-linejoin="round"/>
<path d="M13.2844 9.75424C13.2844 11.0102 12.7854 12.2144 11.8974 13.1021C11.3871 13.6128 10.9309 14.069 10.9309 14.069L9.96401 13.1021C9.07593 12.2144 8.57739 11.0102 8.57739 9.75424C8.57739 8.49823 9.07593 7.29403 9.96401 6.40638C10.4747 5.89569 10.9309 5.43944 10.9309 5.43944C10.9309 5.43944 11.3871 5.89569 11.8974 6.40638C12.7854 7.29403 13.2844 8.49823 13.2844 9.75424Z" stroke="white" stroke-miterlimit="10" stroke-linecap="round" stroke-linejoin="round"/>
<path d="M8.57739 14.4613C8.57739 15.7173 8.07847 16.9215 7.19038 17.8091C6.68008 18.3199 6.22388 18.7761 6.22388 18.7761C6.22388 18.7761 5.76768 18.3199 5.25698 17.8091C4.36895 16.9215 3.87036 15.7173 3.87036 14.4613C3.87036 13.2053 4.36895 12.0011 5.25698 11.1134L6.22388 10.1465C6.22388 10.1465 6.68008 10.6027 7.19038 11.1134C8.07847 12.0011 8.57739 13.2053 8.57739 14.4613Z" stroke="white" stroke-miterlimit="10" stroke-linecap="round" stroke-linejoin="round"/>
<path d="M19.9523 11.7155C18.6967 11.7155 17.4925 11.2166 16.6044 10.3289C16.0941 9.8182 15.6379 9.362 15.6379 9.362C15.6379 9.362 16.0941 8.9058 16.6044 8.39511C17.4925 7.50741 18.6967 7.00848 19.9523 7.00848H19.9527C21.2083 7.00848 22.4125 7.50741 23.3006 8.39511C23.8113 8.9058 24.2675 9.362 24.2675 9.362L23.3006 10.3289C22.4125 11.2166 21.2083 11.7155 19.9527 11.7155H19.9523Z" stroke="white" stroke-miterlimit="10" stroke-linecap="round" stroke-linejoin="round"/>
<path d="M15.2453 16.4225C13.9896 16.4225 12.7854 15.9236 11.8974 15.0359C11.3871 14.5252 10.9309 14.069 10.9309 14.069C10.9309 14.069 11.3871 13.6128 11.8974 13.1021C12.7854 12.2144 13.9896 11.7155 15.2453 11.7155H15.2457C16.5013 11.7155 17.7055 12.2144 18.5936 13.1021C19.1042 13.6128 19.5604 14.069 19.5604 14.069C19.5604 14.069 19.1042 14.5252 18.5936 15.0359C17.7055 15.9236 16.5013 16.4225 15.2457 16.4225H15.2453Z" stroke="white" stroke-miterlimit="10" stroke-linecap="round" stroke-linejoin="round"/>
<path d="M10.5382 21.1296C9.28262 21.1296 8.07842 20.6307 7.19038 19.743C6.68003 19.2323 6.22388 18.7761 6.22388 18.7761C6.22388 18.7761 6.68003 18.3199 7.19038 17.8092C8.07842 16.9215 9.28262 16.4225 10.5382 16.4225H10.5386C11.7942 16.4225 12.9984 16.9215 13.8865 17.8092C14.3972 18.3199 14.8534 18.7761 14.8534 18.7761L13.8865 19.743C12.9984 20.6307 11.7942 21.1296 10.5386 21.1296H10.5382Z" stroke="white" stroke-miterlimit="10" stroke-linecap="round" stroke-linejoin="round"/>
</g>
</g>
<defs>
<clipPath id="clip0_35_266">
<rect width="25" height="25" fill="white"/>
</clipPath>
</defs>
</svg>
