<svg width="56" height="60" viewBox="0 0 56 60" fill="none" xmlns="http://www.w3.org/2000/svg">
<path d="M4.82823 54.7025C2.24401 54.7025 0.14917 52.6077 0.14917 50.0234V34.1893C0.14917 31.6051 2.24401 29.5103 4.82823 29.5103C7.41244 29.5103 9.50729 31.6051 9.50729 34.1893L8.05135 42.3212L9.50729 50.0234C9.50729 52.6077 7.41244 54.7025 4.82823 54.7025Z" fill="#C8EFFE"/>
<path d="M46.5879 13.3965L40.2752 6.89185L34.9017 1.35545C33.1476 -0.451816 30.2466 -0.451816 28.4912 1.35545L16.8062 13.3966C15.5639 14.6763 14.8685 16.3893 14.8685 18.1736V56.8188C14.8685 58.5754 16.2931 59.9999 18.0497 59.9999H45.3432C47.1009 59.9999 48.5256 58.5754 48.5256 56.8188V18.1736C48.5256 16.3893 47.8302 14.6761 46.5879 13.3965ZM29.5077 7.60165C29.5077 6.39322 30.488 5.41412 31.6964 5.41412C32.906 5.41412 33.8851 6.39322 33.8851 7.60165C33.8851 8.81126 32.906 9.79036 31.6964 9.79036C30.4881 9.79048 29.5077 8.81138 29.5077 7.60165Z" fill="#F4DBB3"/>
<path d="M46.5878 13.3965L40.2752 6.89185L34.9017 1.35545C33.1476 -0.451816 30.2465 -0.451816 28.4912 1.35545L27.6349 2.23787C29.1131 1.88771 30.7351 2.29845 31.8738 3.47174L35.2528 6.94154C35.8004 7.50392 35.728 8.42056 35.0971 8.88767C32.5327 10.7866 30.8694 13.8325 30.8694 17.2682C30.8694 23.028 35.5391 27.6965 41.2975 27.6965C42.0387 27.6965 42.7612 27.6171 43.4587 27.4701V56.819C43.4587 58.5755 42.0342 60 40.2764 60H45.3431C47.1007 60 48.5254 58.5752 48.5254 56.8177V24.7857V18.1736C48.5255 16.3893 47.8301 14.6761 46.5878 13.3965Z" fill="#D2AF8C"/>
<g filter="url(#filter0_d_82_424)">
<path d="M33.0509 33.7243L33.0447 49.9233L28.5744 53.1345L23.8058 53.1357C22.1543 53.1368 20.5149 52.8519 18.9599 52.2942L14.8688 50.4318L9.50745 50.0234L8.05151 42.3211L9.50722 34.1893L16.7687 34.2181C17.8697 34.2181 18.8235 33.4515 19.0601 32.3746C19.7848 29.0745 21.0104 25.9048 22.6944 22.9756L23.3639 21.8111C23.4415 21.6645 23.5319 21.5282 23.6331 21.4031C24.1145 20.8075 26.3209 21.667 26.1941 22.6762L26.6018 31.5114H29.3399H29.3423L33.0509 33.7243Z" fill="#FFCEBF"/>
<path d="M33.0508 31.5162L33.0435 52.998V53.1333L28.5744 53.1344C27.4311 52.7722 26.6331 51.6266 26.6331 50.4338C26.6135 48.9805 27.8554 47.7204 29.312 47.7272C27.5314 47.7103 26.2504 46.0032 26.737 44.2865C27.0653 43.1324 28.1144 42.3344 29.312 42.3224C27.5099 42.3173 26.2464 40.5365 26.737 38.8817C27.0653 37.7276 28.1144 36.9296 29.3109 36.9176C27.5314 36.9007 26.2505 35.1936 26.737 33.4769C27.0678 32.3143 28.1301 31.5116 29.3398 31.5116H29.3423L33.0508 31.5162Z" fill="#FFB09E"/>
<path d="M23.9767 22.8507L23.16 29.3735C23.0179 30.5085 23.903 31.5113 25.0469 31.5113H26.6016L27.6859 22.8507C27.8123 21.8415 27.2146 20.8817 26.2532 20.55C25.2756 20.289 24.2559 20.6384 23.6372 21.4008C23.9114 21.8172 24.0422 22.3269 23.9767 22.8507Z" fill="#FFB09E"/>
<path d="M36.3497 50.4314L36.3783 52.011C36.048 53.1751 34.7426 53.1383 33.5325 53.1367L33.0441 53.1332C31.2514 53.131 29.9573 51.4162 30.4468 49.6915C30.7771 48.5275 31.8408 47.7247 33.0509 47.7262L33.3792 47.7297C35.1719 47.7321 36.4362 48.5852 36.3497 50.4314Z" fill="#FFDFCF"/>
<path d="M38.5002 51.1714C38.1707 52.3352 37.1071 53.138 35.8962 53.1367L33.5324 53.1343C34.1734 52.9314 34.6673 52.2289 34.7916 51.1713C34.9895 49.5004 34.4777 47.9624 33.3792 47.7257L35.9035 47.7293C35.9372 47.7293 35.9711 47.7305 36.0048 47.7318C37.7445 47.7971 38.9807 49.4788 38.5002 51.1714Z" fill="#FFCEBF"/>
<path d="M38.6047 44.3984V46.2394C38.2744 47.4036 36.044 47.7358 34.8339 47.7342L33.044 47.7282C31.2512 47.7259 29.9571 46.0112 30.4466 44.2865C30.777 43.1224 31.8408 42.3196 33.0509 42.3212L34.5756 42.3271C36.3682 42.3295 38.6047 42.9138 38.6047 44.3984Z" fill="#FFDFCF"/>
<path d="M40.3656 45.769C40.0347 46.9328 38.9711 47.7356 37.7604 47.7343L36.005 47.7319L34.834 47.7307C35.6983 47.5701 36.3998 46.7094 36.6558 45.7689C37.082 44.2031 36.0872 42.4658 34.5757 42.3221L37.7676 42.327C37.7845 42.327 37.8014 42.3269 37.8171 42.3281C39.5844 42.3609 40.8497 44.0596 40.3656 45.769Z" fill="#FFCEBF"/>
<path d="M34.2362 47.7272C34.2242 47.7297 34.2121 47.7297 34.2 47.7297C34.1518 47.7333 34.101 47.7345 34.0516 47.7345L32.8661 47.7333C32.9084 47.7297 32.9506 47.7272 32.9941 47.7272C33.0122 47.7261 33.0303 47.7261 33.0484 47.7261H33.0509L34.2362 47.7272Z" fill="#FFE5C2"/>
<path d="M38.3985 38.8755L38.4281 40.5383C38.0978 41.7024 35.7856 42.3307 34.5755 42.329L33.0439 42.323C31.2511 42.3207 29.957 40.606 30.4465 38.8815C30.7769 37.7173 31.8407 36.9146 33.0508 36.9161L34.829 36.9221C36.6217 36.9245 38.3094 37.4206 38.3985 38.8755Z" fill="#FFDFCF"/>
<path d="M40.3655 40.3641C40.0395 41.5097 39.0037 42.3053 37.8171 42.3283C37.7977 42.3295 37.7797 42.3295 37.7603 42.3295L34.2002 42.3247C34.2123 42.3247 34.2243 42.3247 34.2364 42.3222C35.3688 42.2473 36.3418 41.4674 36.6557 40.364C37.0722 38.8985 36.2006 37.3495 34.8291 36.9185L37.7676 36.9221C37.7845 36.9221 37.8014 36.9221 37.8171 36.9233C39.5844 36.9561 40.8496 38.6547 40.3655 40.3641Z" fill="#FFCEBF"/>
<path d="M38.506 33.8048L38.6047 35.1344C38.2744 36.2986 36.0392 36.9259 34.8291 36.9244L33.044 36.9184C31.2512 36.916 29.9571 35.2014 30.4466 33.4767C30.777 32.3126 31.8408 31.5098 33.0509 31.5114L34.8219 31.5173C36.6146 31.5197 38.6048 32.076 38.506 33.8048Z" fill="#FFDFCF"/>
<path d="M40.3656 34.9593C40.0396 36.105 39.0037 36.9005 37.8171 36.9235C37.7978 36.9247 37.7797 36.9247 37.7604 36.9247L34.828 36.9211C35.6972 36.6337 36.3987 35.8647 36.6558 34.9592C37.0734 33.4912 36.197 31.9423 34.8219 31.5138L37.7676 31.5174C39.5603 31.5199 40.8545 33.2342 40.3656 34.9593Z" fill="#FFCEBF"/>
</g>
<path d="M45.4975 27.6963C51.2567 27.6963 55.9254 23.0276 55.9254 17.2684C55.9254 11.5092 51.2567 6.84045 45.4975 6.84045C39.7383 6.84045 35.0696 11.5092 35.0696 17.2684C35.0696 23.0276 39.7383 27.6963 45.4975 27.6963Z" fill="#FFC269"/>
<path d="M42.8516 22.7343V12.0243H45.6716C46.9816 12.0243 47.9516 12.2893 48.5816 12.8193C49.2216 13.3493 49.5416 14.1193 49.5416 15.1293C49.5416 15.8093 49.3866 16.3943 49.0766 16.8843C48.7666 17.3643 48.3066 17.7343 47.6966 17.9943C47.0966 18.2543 46.3516 18.3843 45.4616 18.3843H44.2016V22.7343H42.8516ZM41.5466 20.6943V19.7193H46.6766V20.6943H41.5466ZM41.5466 18.3843V17.2443H44.9816V18.3843H41.5466ZM45.2666 17.2443C45.8766 17.2443 46.3916 17.1793 46.8116 17.0493C47.2416 16.9193 47.5716 16.7043 47.8016 16.4043C48.0316 16.1043 48.1466 15.6943 48.1466 15.1743C48.1466 14.4943 47.9366 13.9893 47.5166 13.6593C47.0966 13.3293 46.4416 13.1643 45.5516 13.1643H44.2016V17.2443H45.2666Z" fill="#A25A1C"/>
<path d="M45.4975 6.84045C44.7782 6.84045 44.076 6.91334 43.3976 7.05198C48.1504 8.0237 51.7257 12.2285 51.7257 17.2684C51.7257 22.3083 48.1504 26.5131 43.3976 27.4848C44.0759 27.6234 44.7782 27.6963 45.4975 27.6963C51.2566 27.6963 55.9254 23.0275 55.9254 17.2684C55.9254 11.5092 51.2566 6.84045 45.4975 6.84045Z" fill="#FFA95F"/>
<path d="M4.82794 29.51C4.14778 29.51 3.5022 29.6563 2.91919 29.9172C4.55149 30.6478 5.6895 32.285 5.6895 34.1891V50.0233C5.6895 51.9274 4.55149 53.5646 2.91919 54.2951C3.50231 54.5561 4.1479 54.7024 4.82794 54.7024C7.41215 54.7024 9.507 52.6075 9.507 50.0233V34.1892C9.507 31.605 7.41215 29.51 4.82794 29.51Z" fill="#99E6FC"/>
<defs>
<filter id="filter0_d_82_424" x="8.05151" y="20.4642" width="35.4182" height="34.673" filterUnits="userSpaceOnUse" color-interpolation-filters="sRGB">
<feFlood flood-opacity="0" result="BackgroundImageFix"/>
<feColorMatrix in="SourceAlpha" type="matrix" values="0 0 0 0 0 0 0 0 0 0 0 0 0 0 0 0 0 0 127 0" result="hardAlpha"/>
<feOffset dx="3" dy="2"/>
<feComposite in2="hardAlpha" operator="out"/>
<feColorMatrix type="matrix" values="0 0 0 0 0.823529 0 0 0 0 0.686275 0 0 0 0 0.54902 0 0 0 1 0"/>
<feBlend mode="normal" in2="BackgroundImageFix" result="effect1_dropShadow_82_424"/>
<feBlend mode="normal" in="SourceGraphic" in2="effect1_dropShadow_82_424" result="shape"/>
</filter>
</defs>
</svg>
