<svg width="100" height="101" viewBox="0 0 100 101" fill="none" xmlns="http://www.w3.org/2000/svg">
<g clip-path="url(#clip0_99_720)">
<path d="M73.5655 77.9029L53.7489 66.1677C52.5378 65.45 52.1378 63.8863 52.8554 62.6751C52.8554 62.6751 53.439 61.6902 54.0636 60.6355L49.2854 57.8089C46.1335 56.0001 44.6595 55.6656 41.8159 56.765L38.7167 57.963C36.8308 58.6921 34.7145 58.5162 32.9749 57.4855L24.6798 52.5945L12.8979 72.4814L23.5198 78.7507C24.2394 79.1769 24.8712 79.7361 25.3819 80.3984L28.9612 85.0404C30.9382 87.3527 35.0183 90.3519 37.6356 91.9025L45.8188 96.7505C47.1382 97.5322 48.8026 97.4216 50.0069 96.4722L73.5655 77.9029Z" fill="#F9EAE2"/>
<path d="M77.3663 80.1534L68.7202 75.0331C68.613 74.9696 68.4745 75.003 68.4083 75.1087C68.362 75.1823 68.3632 75.2747 68.4075 75.3495C69.1501 76.5997 69.1733 78.2208 68.2901 79.5311C67.18 81.1782 64.9351 81.6097 63.2263 80.5974L61.9331 79.8313C61.6647 79.6724 61.3181 79.7624 61.161 80.0321C61.0724 80.1845 61.0604 80.3702 61.1294 80.5325C61.5575 81.5413 61.4647 82.9481 60.9827 84.0192C60.2911 85.5563 58.4856 86.611 56.5548 85.4673L55.9933 85.1347C55.6085 84.9067 55.122 84.9442 54.7769 85.2286C54.4157 85.2286 54.2185 85.5075 54.3183 85.8546C54.6104 86.8714 54.4919 88.004 53.8927 88.9806C52.7673 90.8149 50.3335 91.345 48.4819 90.2481L46.9583 89.3454C46.6667 89.1726 46.2919 89.2434 46.0835 89.5108C45.9565 89.6737 45.9108 89.8858 45.9624 90.0858C46.2118 91.0559 46.0923 92.1206 45.5413 93.0505C44.9146 94.1085 43.8667 94.7612 42.7378 94.9255L51.2185 99.9497C52.989 100.999 55.3124 100.515 56.4233 98.7831C57.5897 96.9647 57.0079 94.5577 55.1651 93.4661L59.3548 95.9483C61.1253 96.9972 63.4487 96.5138 64.5599 94.7817C65.7263 92.9634 65.1444 90.5563 63.3019 89.4647L66.1472 91.1505C67.9503 92.2188 70.2782 91.6229 71.3464 89.8198C72.4145 88.0167 71.8188 85.6888 70.0157 84.6206L73.4196 86.6372C75.1899 87.686 77.5132 87.2026 78.6241 85.4706C79.7905 83.6518 79.2089 81.245 77.3663 80.1534Z" fill="#F5DBCC"/>
<path d="M75.3207 53.7822L68.9496 57.4854C67.21 58.516 65.0938 58.692 63.2076 57.9629L59.7123 56.5898C58.6191 56.1604 57.4188 56.0844 56.2801 56.3725L50.9248 57.7277C48.4318 58.3586 46.6855 60.602 46.6855 63.1734V70.3221C46.6855 71.3328 47.5047 72.1549 48.5154 72.1557C51.5635 72.1576 54.035 69.6873 54.035 66.6398V66.3371L76.9572 79.9115C77.3818 79.4592 77.8687 79.068 78.4043 78.7508L87.102 73.6691L75.3207 53.7822Z" fill="#ECB784"/>
<path d="M28.1748 82.9622L26.0258 85.9555C24.8039 87.6577 22.4334 88.0467 20.7315 86.8248C19.0293 85.603 18.6403 83.2325 19.8622 81.5305L22.0112 78.5371C23.233 76.835 25.6036 76.4459 27.3055 77.6678C29.0077 78.8899 29.3967 81.2602 28.1748 82.9622Z" fill="#ECB784"/>
<path d="M36.7103 84.0837L32.1894 90.3808C30.9675 92.083 28.597 92.472 26.8951 91.2501C25.1929 90.0283 24.8038 87.6578 26.0257 85.9558L30.5464 79.6587C31.7683 77.9566 34.1388 77.5675 35.8408 78.7894C37.5429 80.0113 37.9322 82.3816 36.7103 84.0837Z" fill="#ECB784"/>
<path d="M42.8742 88.5085L38.3535 94.8056C37.1316 96.5078 34.7611 96.8968 33.0591 95.6749C31.357 94.4531 30.9679 92.0826 32.1898 90.3806L36.7105 84.0835C37.9324 82.3814 40.3029 81.9923 42.0048 83.2142C43.7068 84.4361 44.096 86.8066 42.8742 88.5085Z" fill="#ECB784"/>
<path d="M47.0291 95.7317L45.5258 97.8256C44.3039 99.5278 41.9334 99.9168 40.2315 98.695C38.5293 97.4731 38.1403 95.1026 39.3622 93.4006L40.8655 91.3067C42.0873 89.6045 44.4579 89.2155 46.1598 90.4373C47.862 91.6592 48.2512 94.0297 47.0291 95.7317Z" fill="#ECB784"/>
<path d="M80.9461 74.439C85.4491 71.755 88.2073 66.8996 88.2073 61.6574V43.8019L87.1026 42.0564L70.3067 52.0679C68.7877 52.9734 68.2879 54.9373 69.1891 56.4585L80.1276 74.9222L80.9461 74.439Z" fill="#AED559"/>
<path d="M83.6562 78.8193C84.0865 78.9082 84.5355 78.9094 84.9748 78.8154C84.5654 78.832 84.1207 78.833 83.6562 78.8193Z" fill="#AED559"/>
<path d="M87.1024 42.0564V61.6573C87.1024 66.8995 84.344 71.7548 79.8413 74.439L81.5437 77.3126C82.4483 78.8398 84.4214 79.3419 85.9462 78.4331L97.7427 71.4015C99.0853 70.6011 99.9077 69.1534 99.9077 67.5903V37.4304C99.9077 36.1048 98.4634 35.2843 97.3247 35.963L87.1024 42.0564Z" fill="#7FAB38"/>
<path d="M2.67559 35.963L29.6938 52.0677C31.2127 52.9731 31.7125 54.937 30.8111 56.4583L18.4568 77.3124C17.5521 78.8396 15.5791 79.3417 14.0543 78.4329L2.25781 71.4013C0.915234 70.6009 0.0927734 69.1532 0.0927734 67.5901V37.4304C0.0927734 36.1048 1.53691 35.2843 2.67559 35.963Z" fill="#AED559"/>
<path d="M57.4475 12.1225C56.6154 12.1225 55.9412 11.4482 55.9412 10.6162V5.4748C55.9412 4.39277 55.0613 3.5125 53.9797 3.5125H46.0209C44.9393 3.5125 44.0594 4.39277 44.0594 5.4748V10.6162C44.0594 11.4482 43.385 12.1225 42.5531 12.1225C41.7213 12.1225 41.0469 11.4482 41.0469 10.6162V5.4748C41.0467 2.73184 43.2781 0.5 46.0207 0.5H53.9795C56.7221 0.5 58.9535 2.73184 58.9535 5.4748V10.6162C58.9537 11.4482 58.2793 12.1225 57.4475 12.1225Z" fill="#7FAB38"/>
<path d="M36.1151 21.3617C31.9479 21.3617 28.5698 17.9836 28.5698 13.8164V34.0777C28.5698 36.3773 30.4341 38.2416 32.7337 38.2416H55.7153C58.0149 38.2416 59.8792 36.3773 59.8792 34.0777V21.3617H36.1151Z" fill="#DDB7A0"/>
<path d="M63.885 21.3617H58.7244V34.0777C58.7244 36.3773 56.8602 38.2416 54.5605 38.2416H67.2662C69.5658 38.2416 71.4301 36.3773 71.4301 34.0777V13.8164C71.4303 17.9834 68.0521 21.3617 63.885 21.3617Z" fill="#D6A889"/>
<path d="M55.7271 9.36792H32.7337C30.4341 9.36792 28.57 11.232 28.5698 13.5316V15.314C28.5698 19.4812 31.9479 22.8593 36.1151 22.8593H59.8911V13.5318C59.8911 11.232 58.0269 9.36792 55.7271 9.36792Z" fill="#CC9675"/>
<path d="M58.7244 13.5317V22.8591H63.885C68.0521 22.8591 71.4303 19.481 71.4303 15.3138V13.5313C71.4301 11.2317 69.566 9.36768 67.2664 9.36768H54.5605C56.8602 9.36787 58.7244 11.2319 58.7244 13.5317Z" fill="#C4845C"/>
<path d="M38.8002 27.5284C37.9684 27.5284 37.2939 26.8542 37.2939 26.0221V19.6959C37.2939 18.8639 37.9684 18.1897 38.8002 18.1897C39.632 18.1897 40.3064 18.8639 40.3064 19.6959V26.0223C40.3064 26.8541 39.632 27.5284 38.8002 27.5284Z" fill="#F4FBFF"/>
<path d="M61.1996 27.5284C60.3676 27.5284 59.6934 26.8542 59.6934 26.0221V19.6959C59.6934 18.8639 60.3676 18.1897 61.1996 18.1897C62.0316 18.1897 62.7059 18.8639 62.7059 19.6959V26.0223C62.7059 26.8541 62.0316 27.5284 61.1996 27.5284Z" fill="#F4FBFF"/>
</g>
<defs>
<clipPath id="clip0_99_720">
<rect width="100" height="100" fill="white" transform="translate(0 0.5)"/>
</clipPath>
</defs>
</svg>
