<svg width="100" height="101" viewBox="0 0 100 101" fill="none" xmlns="http://www.w3.org/2000/svg">
<path d="M0 23.5092L39.1768 6.47188C39.7801 6.20957 40.4654 6.20957 41.0688 6.47188L80.2455 23.5092L40.1227 42.2172L0 23.5092Z" fill="#B78774"/>
<path d="M44.1096 7.89995C44.1525 7.8812 44.1967 7.86714 44.2402 7.85093L41.0686 6.47163C40.4652 6.20933 39.7801 6.20933 39.1766 6.47163L0 23.5091L3.96543 25.3582L44.1096 7.89995Z" fill="#AD7B64"/>
<path d="M0 75.7863C0 76.5381 0.44375 77.2189 1.13164 77.5224L40.1229 94.7252V41.2111L0 23.5092V75.7863Z" fill="#966653"/>
<path d="M40.123 41.2111V94.725L44.2107 92.9215V39.4076L40.123 41.2111Z" fill="#966653"/>
<path d="M4.02441 78.7113V25.2845L0 23.5092V75.7863C0 76.5381 0.44375 77.2189 1.13164 77.5224L4.02773 78.8002C4.02656 78.7705 4.02441 78.741 4.02441 78.7113Z" fill="#875746"/>
<path d="M27.7057 34.3486L16.2465 29.293L14.7891 30.034V47.9109C14.7891 48.4684 15.1182 48.9732 15.6283 49.1982L25.0613 53.36C25.6203 53.6066 26.2484 53.1973 26.2484 52.5861V35.0895L27.7057 34.3486Z" fill="#AED559"/>
<path d="M18.8133 30.4254L16.2465 29.293L14.7891 30.034V47.9109C14.7891 48.4684 15.1182 48.9732 15.6283 49.1982L18.8135 50.6035L18.8133 30.4254Z" fill="#7FAB38"/>
<path d="M40.123 94.725L79.1143 77.5222C79.8021 77.2187 80.2459 76.5379 80.2459 75.7861V23.5092L40.123 41.2111V94.725Z" fill="#AD7B64"/>
<path d="M14.7891 30.0338L26.2482 35.0896L63.4215 16.1926L51.8857 11.1758L14.7891 30.0338Z" fill="#AED559"/>
<path d="M55.9371 12.9377L51.8857 11.1758L14.7891 30.0338L18.8135 31.8096L55.9371 12.9377Z" fill="#7FAB38"/>
<path d="M79.4051 93.1811C73.8967 91.5858 69.1664 88.2918 65.7252 83.6559C62.301 79.0428 60.4912 73.5612 60.4912 67.8037V52.1815C60.4912 51.7112 60.741 51.276 61.1473 51.0389C61.5535 50.8018 62.0551 50.7983 62.4646 51.0297C66.798 53.4776 70.899 53.5115 74.6537 51.1305C77.5236 49.3106 79.1004 46.7565 79.116 46.7309C79.3563 46.3367 79.7842 46.0963 80.2457 46.0963C80.7066 46.0963 81.1344 46.3362 81.3746 46.7295C81.6406 47.1614 87.7609 56.8285 98.0268 51.0295C98.4363 50.7981 98.9379 50.8018 99.3441 51.0387C99.7504 51.2758 100 51.7108 100 52.1813V67.8035C100 73.561 98.1902 79.0426 94.7662 83.6557C91.325 88.2918 86.5947 91.5856 81.0867 93.1809C80.2211 93.4315 80.2523 93.4264 79.4051 93.1811Z" fill="#AED559"/>
<path d="M78.8724 51.1304C80.4231 50.147 81.5954 48.9498 82.3487 48.0525C81.7628 47.3468 81.4319 46.8228 81.3745 46.7296C81.1343 46.3363 80.7065 46.0964 80.2456 46.0964C79.7841 46.0964 79.3562 46.3369 79.1159 46.731C79.1003 46.7566 77.5235 49.3105 74.6536 51.1306C73.4517 51.8927 72.2142 52.4062 70.9448 52.6736C73.7185 53.2289 76.3722 52.7158 78.8724 51.1304Z" fill="#7FAB38"/>
<path d="M69.9437 83.6558C66.5195 79.0427 64.7098 73.561 64.7098 67.8036V52.1814C64.7098 52.1507 64.7137 52.1208 64.7158 52.0905C63.9729 51.8101 63.2225 51.4575 62.4646 51.0296C62.0551 50.7983 61.5535 50.8017 61.1473 51.0388C60.741 51.2759 60.4912 51.7108 60.4912 52.1814V67.8036C60.4912 73.561 62.3012 79.0427 65.7252 83.6558C69.1664 88.2919 73.8967 91.5857 79.4051 93.181C80.2686 93.431 80.2377 93.4267 81.0865 93.181C81.5146 93.0569 81.9365 92.919 82.3551 92.7747C77.3893 91.0616 73.1174 87.9314 69.9437 83.6558Z" fill="#7FAB38"/>
<path d="M76.4237 77.4101L71.5444 72.3051C70.9587 71.6924 70.9808 70.7207 71.5935 70.1349C72.2062 69.5492 73.1778 69.5711 73.7636 70.1842L77.5474 74.1429L88.5321 62.94C89.1255 62.3343 90.0974 62.3256 90.7026 62.9187C91.3079 63.5123 91.3175 64.484 90.7239 65.0894L78.629 77.4244C78.0224 78.0433 77.023 78.0373 76.4237 77.4101Z" fill="#E4EAF8"/>
</svg>
