<svg width="60" height="60" viewBox="0 0 60 60" fill="none" xmlns="http://www.w3.org/2000/svg">
<g clip-path="url(#clip0_82_448)">
<path d="M0 48.0485V53.0417C0 53.7085 0.540469 54.249 1.20727 54.249H37.1494V48.0486H0L0 48.0485Z" fill="#9BB9C3"/>
<path d="M4.12957 53.0416V48.0483H0V53.0416C0 53.7084 0.540469 54.2488 1.20727 54.2488H5.33684C4.67004 54.2488 4.12957 53.7084 4.12957 53.0416Z" fill="#87A0AF"/>
<path d="M0 49.8644H37.1493L40.2298 34.01L37.1493 24.68V18.0129C37.1493 17.3461 36.6088 16.8057 35.942 16.8057H1.20727C0.540469 16.8058 0 17.3464 0 18.013L0 49.8644Z" fill="#F4DBB3"/>
<path d="M1.20727 16.8058C0.540469 16.8058 0 17.3463 0 18.0131V49.8644H4.12957V22.7104C7.10531 27.5744 12.4669 30.8273 18.5746 30.8273C26.9167 30.8273 33.8675 24.7595 35.2475 16.8058H1.20727Z" fill="#D2AF8C"/>
<path d="M11.7677 60C8.59145 60 6.0166 57.4251 6.0166 54.2489C6.0166 51.0726 8.59145 48.4978 11.7677 48.4978C14.9439 48.4978 17.5188 51.0726 17.5188 54.2489C17.5187 57.4251 14.9438 60 11.7677 60Z" fill="#495959"/>
<path d="M11.7676 52.0322C10.5434 52.0322 9.5509 53.0247 9.5509 54.2489C9.5509 55.4732 10.5434 56.4657 11.7676 56.4657C12.9919 56.4657 13.9843 55.4732 13.9843 54.2489C13.9843 53.0247 12.9919 52.0322 11.7676 52.0322Z" fill="#F1F6F7"/>
<path d="M37.1493 48.0485V54.2488H58.7928C59.4596 54.2488 60 53.7084 60 53.0416V48.0483H37.1493V48.0485Z" fill="#9BB9C3"/>
<path d="M37.1493 48.0485H40.8405V54.2489H37.1493V48.0485Z" fill="#87A0AF"/>
<path d="M59.7028 36.7797L49.5174 25.094C49.2882 24.8309 48.9563 24.6799 48.6073 24.6799H38.3566C37.6898 24.6799 37.1493 25.2204 37.1493 25.8872V49.8643H60V37.5729C60 37.2813 59.8944 36.9995 59.7028 36.7797Z" fill="#E5646E"/>
<path d="M42.0479 24.6801H38.3567C37.6899 24.6801 37.1494 25.2205 37.1494 25.8873V49.8645H40.8406V25.8872C40.8406 25.2205 41.3811 24.6801 42.0479 24.6801Z" fill="#DB4655"/>
<path d="M40.8406 38.5101V29.5098C40.8406 29.1764 41.1108 28.9061 41.4442 28.9061H46.6853C46.8598 28.9061 47.0257 28.9816 47.1403 29.1131L54.2492 37.269C54.345 37.3789 54.3978 37.5198 54.3978 37.6655V38.51C54.3978 38.8434 54.1275 39.1136 53.7941 39.1136H41.4442C41.1108 39.1137 40.8406 38.8435 40.8406 38.5101Z" fill="#7398D4"/>
<path d="M42.7907 43.7626H40.8406C40.3404 43.7626 39.9352 43.3572 39.9352 42.8572C39.9352 42.3571 40.3405 41.9518 40.8406 41.9518H42.7907C43.2908 41.9518 43.6961 42.3571 43.6961 42.8572C43.6961 43.3572 43.2908 43.7626 42.7907 43.7626Z" fill="#DB4655"/>
<path d="M48.2227 60C45.0464 60 42.4716 57.4251 42.4716 54.2489C42.4716 51.0726 45.0464 48.4978 48.2227 48.4978C51.3989 48.4978 53.9737 51.0726 53.9737 54.2489C53.9737 57.4251 51.3989 60 48.2227 60Z" fill="#495959"/>
<path d="M48.2227 52.0322C46.9984 52.0322 46.006 53.0247 46.006 54.2489C46.006 55.4732 46.9984 56.4657 48.2227 56.4657C49.447 56.4657 50.4394 55.4732 50.4394 54.2489C50.4394 53.0247 49.447 52.0322 48.2227 52.0322Z" fill="#F1F6F7"/>
<path d="M55.0012 46.2422H60V42.7365H55.0012C54.6678 42.7365 54.3976 43.0067 54.3976 43.3401V45.6387C54.3976 45.972 54.6678 46.2422 55.0012 46.2422Z" fill="#FFC269"/>
<path d="M32.6074 45.3787H26.5218C26.0218 45.3787 25.6165 44.9733 25.6165 44.4733C25.6165 43.9731 26.0218 43.5679 26.5218 43.5679H32.6073C33.1074 43.5679 33.5127 43.9732 33.5127 44.4733C33.5128 44.9734 33.1074 45.3787 32.6074 45.3787Z" fill="#D2AF8C"/>
<path d="M32.6074 41.5336H26.5218C26.0218 41.5336 25.6165 41.1282 25.6165 40.6282C25.6165 40.1281 26.0218 39.7228 26.5218 39.7228H32.6073C33.1074 39.7228 33.5127 40.1281 33.5127 40.6282C33.5127 41.1282 33.1074 41.5336 32.6074 41.5336Z" fill="#D2AF8C"/>
<path d="M14.76 45.3787H5.33679C4.83675 45.3787 4.4314 44.9733 4.4314 44.4733C4.4314 43.9731 4.83675 43.5679 5.33679 43.5679H14.76C15.26 43.5679 15.6653 43.9732 15.6653 44.4733C15.6655 44.9734 15.26 45.3787 14.76 45.3787Z" fill="#F1F6F7"/>
<path d="M8.93545 40.7936H11.1613C11.4947 40.7936 11.7649 40.5233 11.7649 40.1899V34.1643H13.2453C13.7909 34.1643 14.0565 33.4977 13.6605 33.1225L10.6146 30.2366C10.3878 30.0216 10.0342 30.0155 9.79983 30.2223L6.5324 33.1082C6.11569 33.4763 6.37596 34.1643 6.93201 34.1643H8.33182V40.1899C8.33182 40.5233 8.60217 40.7936 8.93545 40.7936Z" fill="#F1F6F7"/>
<path d="M18.5747 27.8092C10.8954 27.8092 4.67004 21.5839 4.67004 13.9046C4.67004 6.22523 10.8954 0 18.5747 0C26.254 0 32.4792 6.22523 32.4792 13.9045C32.4792 21.5838 26.254 27.8092 18.5747 27.8092Z" fill="#FFC269"/>
<path d="M8.84227 13.9046C8.84227 6.93434 13.9711 1.16238 20.6607 0.155859C19.9802 0.0534375 19.2837 0 18.5747 0C10.8954 0 4.67004 6.22523 4.67004 13.9045C4.67004 21.5838 10.8953 27.8091 18.5746 27.8091C19.2837 27.8091 19.9801 27.7556 20.6606 27.6532C13.9712 26.6468 8.84227 20.8748 8.84227 13.9046Z" fill="#FFA95F"/>
<path d="M18.5747 4.17224C13.1997 4.17224 8.84241 8.52951 8.84241 13.9045C8.84241 19.2796 13.1997 23.6369 18.5747 23.6369C23.9498 23.6369 28.307 19.2796 28.307 13.9045C28.307 8.52951 23.9498 4.17224 18.5747 4.17224Z" fill="#FFF9DF"/>
<path d="M20.6608 14.8099H18.5746C18.0745 14.8099 17.6692 14.4046 17.6692 13.9046V10.9811C17.6692 10.4809 18.0745 10.0757 18.5746 10.0757C19.0746 10.0757 19.48 10.481 19.48 10.9811V12.999H20.6606C21.1607 12.999 21.566 13.4044 21.566 13.9044C21.566 14.4045 21.1608 14.8099 20.6608 14.8099Z" fill="#F49751"/>
<path d="M5.28516 5.80786H0.878906C0.393516 5.80786 0 5.41446 0 4.92896C0 4.44345 0.393516 4.05005 0.878906 4.05005H5.28516C5.77055 4.05005 6.16406 4.44345 6.16406 4.92896C6.16406 5.41446 5.77055 5.80786 5.28516 5.80786Z" fill="#F4DBB3"/>
<path d="M1.95469 13.8361H0.878906C0.393516 13.8361 0 13.4427 0 12.9572C0 12.4716 0.393516 12.0782 0.878906 12.0782H1.95469C2.44008 12.0782 2.83359 12.4716 2.83359 12.9572C2.83359 13.4427 2.44008 13.8361 1.95469 13.8361Z" fill="#F4DBB3"/>
<path d="M2.72484 9.85779H0.878906C0.393516 9.85779 0 9.46439 0 8.97888C0 8.49337 0.393516 8.09998 0.878906 8.09998H2.72484C3.21023 8.09998 3.60375 8.49337 3.60375 8.97888C3.60375 9.46439 3.21035 9.85779 2.72484 9.85779Z" fill="#F4DBB3"/>
<path d="M18.5752 8.18479C19.0753 8.18479 19.4808 7.77932 19.4808 7.27916C19.4808 6.779 19.0753 6.37354 18.5752 6.37354C18.075 6.37354 17.6696 6.779 17.6696 7.27916C17.6696 7.77932 18.075 8.18479 18.5752 8.18479Z" fill="#FFC269"/>
<path d="M18.5752 21.4356C19.0753 21.4356 19.4808 21.0302 19.4808 20.53C19.4808 20.0299 19.0753 19.6244 18.5752 19.6244C18.075 19.6244 17.6696 20.0299 17.6696 20.53C17.6696 21.0302 18.075 21.4356 18.5752 21.4356Z" fill="#FFC269"/>
<path d="M22.6196 9.86008C22.9733 10.2138 23.5467 10.2138 23.9004 9.86008C24.254 9.50641 24.254 8.93301 23.9004 8.57934C23.5467 8.22567 22.9733 8.22567 22.6196 8.57934C22.266 8.93301 22.266 9.50641 22.6196 9.86008Z" fill="#FFC269"/>
<path d="M14.5305 17.9492C14.1768 17.5955 13.6034 17.5955 13.2498 17.9492C12.8961 18.3029 12.8961 18.8763 13.2498 19.23C13.6034 19.5836 14.1768 19.5836 14.5305 19.23C14.8842 18.8763 14.8842 18.3029 14.5305 17.9492Z" fill="#FFC269"/>
<path d="M25.2004 14.8103C25.7006 14.8103 26.1061 14.4048 26.1061 13.9046C26.1061 13.4045 25.7006 12.999 25.2004 12.999C24.7003 12.999 24.2948 13.4045 24.2948 13.9046C24.2948 14.4048 24.7003 14.8103 25.2004 14.8103Z" fill="#FFC269"/>
<path d="M11.9497 14.8103C12.4499 14.8103 12.8553 14.4048 12.8553 13.9046C12.8553 13.4045 12.4499 12.999 11.9497 12.999C11.4495 12.999 11.0441 13.4045 11.0441 13.9046C11.0441 14.4048 11.4495 14.8103 11.9497 14.8103Z" fill="#FFC269"/>
<path d="M22.6196 19.2298C22.9733 19.5835 23.5467 19.5835 23.9004 19.2298C24.254 18.8762 24.254 18.3028 23.9004 17.9491C23.5467 17.5954 22.9733 17.5954 22.6196 17.9491C22.266 18.3029 22.266 18.8763 22.6196 19.2298Z" fill="#FFC269"/>
<path d="M14.5305 8.57934C14.1768 8.22567 13.6034 8.22567 13.2498 8.57934C12.8961 8.93301 12.8961 9.50641 13.2498 9.86008C13.6034 10.2138 14.1768 10.2138 14.5305 9.86008C14.8842 9.50641 14.8842 8.93301 14.5305 8.57934Z" fill="#FFC269"/>
</g>
<defs>
<clipPath id="clip0_82_448">
<rect width="60" height="60" fill="white"/>
</clipPath>
</defs>
</svg>
