<svg width="100" height="101" viewBox="0 0 100 101" fill="none" xmlns="http://www.w3.org/2000/svg">
<g clip-path="url(#clip0_99_658)">
<path d="M59.565 73.6685L57.8234 68.8223H40.4241L37.7991 73.7087L33.6426 76.96L37.5612 90.1239L43.5903 94.2681C45.3015 94.4712 47.043 94.5758 48.8085 94.5758C50.5439 94.5758 52.2552 94.4753 53.9383 94.2782L60.0464 90.3264L62.1655 77.8942L59.565 73.6685Z" fill="#6BD9E7"/>
<path d="M33.284 75.7542L20.6282 70.439L17.9135 61.6057L8.37988 58.9338L7.06274 64.5551C11.1951 76.8839 20.6363 86.7775 32.6695 91.5232L37.7993 90.9226L33.284 75.7542Z" fill="#2ED1E2"/>
<path d="M78.725 50.8691L77.2108 43.9573L64.0873 44.6852L61.2137 50.8691H61.0231V50.9309L54.9166 52.9074L53.9387 66.9231L59.5652 73.6684L62.1659 80.3561L73.7766 77.2617L75.6685 71.9715L80.3082 73.0764L81.7749 57.5809L78.725 50.8691Z" fill="#6BD9E7"/>
<path d="M40.8865 56.2457L36.2769 50.869L34.6485 45.9497H21.0215L17.9134 50.869L13.8142 53.858L15.3137 65.5726L20.6281 70.439L24.0497 75.2895L35.3752 77.2616L37.7992 73.7085L42.2796 70.6763L40.8865 56.2457Z" fill="#6BD9E7"/>
<path d="M19.7996 28.0132L13.456 28.9742L8.37973 33.1229C6.06921 38.4698 4.79028 44.3658 4.79028 50.5593C4.79028 50.6619 4.79028 50.7665 4.79229 50.869L7.72539 53.858H15.6586L17.9136 50.869L25.004 46.1796L25.8373 35.2134L19.7996 28.0132Z" fill="#2ED1E2"/>
<path d="M59.4404 28.0132L56.9563 23.6228H41.5474L37.7991 28.0293L33.2839 31.6589L32.4397 47.9991L36.2769 50.869L38.4 54.9455H58.3563L61.023 50.869L65.1911 47.1575V33.287L59.4404 28.0132Z" fill="#6BD9E7"/>
<path d="M82.0942 0.503763C74.6413 0.328212 68.5444 6.31746 68.5444 13.7306C68.5444 16.6854 69.5137 19.4134 71.1508 21.6155L77.1318 29.8628C78.1133 31.2162 78.8024 32.7589 79.1557 34.3932L79.6033 36.4648C79.8243 37.4873 80.7289 38.2173 81.7751 38.2173C82.8214 38.2173 83.7259 37.4873 83.9469 36.4648L84.3945 34.3932C84.7476 32.7591 85.437 31.2164 86.4183 29.863L92.3993 21.6157C94.0758 19.3605 95.0519 16.5537 95.0038 13.5167C94.8922 6.45621 89.1533 0.670064 82.0942 0.503763Z" fill="#AED559"/>
<path d="M70.1081 7.49194C69.1119 9.35102 68.5444 11.4739 68.5444 13.7305C68.5444 16.6854 69.5137 19.4133 71.1508 21.6155L77.1318 29.8627C78.1133 31.2161 78.8024 32.7588 79.1557 34.3931L79.6033 36.4647C79.6038 36.4663 79.6044 36.4679 79.6048 36.4697C80.7854 36.9051 81.9195 37.3652 83.002 37.8468C83.4721 37.5351 83.8208 37.0479 83.9469 36.4647L84.3945 34.3931C84.7476 32.759 85.437 31.2163 86.4183 29.8629L89.6936 25.3467C84.9787 17.7314 78.1865 11.5015 70.1081 7.49194Z" fill="#7FAB38"/>
<path d="M70.4138 13.1417L63.5608 9.0745C60.1765 7.86997 56.5991 7.06762 52.889 6.72778C52.889 6.72778 49.3804 9.56898 48.9219 9.87443C48.4637 10.1801 50.297 23.5743 50.297 23.5743L59.4405 28.0131L62.8062 33.0761L74.7883 34.1351L76.1772 31.1179L79.3263 26.4263L70.4138 13.1417Z" fill="#6BD9E7"/>
<path d="M43.9926 6.80225C35.5047 7.72525 27.7426 11.0613 21.4043 16.1107L19.7996 31.0114L20.5832 33.8486L32.0503 35.2132L37.7991 28.0291L43.9926 24.6166L46.7679 14.0662L43.9926 6.80225Z" fill="#6BD9E7"/>
<path d="M76.9057 9.5161C78.0863 8.15211 79.8297 7.29004 81.7749 7.29004C85.3317 7.29004 88.2147 10.1741 88.2147 13.7307C88.2147 15.3425 87.6231 16.8154 86.644 17.9446C85.4634 19.3086 83.72 20.1706 81.7749 20.1706C78.218 20.1706 75.335 17.2876 75.335 13.7307C75.335 12.1192 75.9266 10.6462 76.9057 9.5161Z" fill="#F9F7F8"/>
<path d="M81.7749 20.1708C83.0246 20.1708 84.1901 19.8135 85.1775 19.1971C82.4783 16.0702 79.3829 13.2907 75.9692 10.9414C75.5628 11.7856 75.335 12.7315 75.335 13.7309C75.335 17.2876 78.2182 20.1708 81.7749 20.1708Z" fill="#EFEDEF"/>
<path d="M87.6031 65.0703L76.2561 65.7263L71.8615 71.9713L62.1655 85.567L63.9848 91.8892C74.3892 88.0685 82.9495 80.4331 87.9707 70.6763L87.6031 65.0703Z" fill="#2ED1E2"/>
<path d="M69.3133 89.5138C77.3002 85.302 83.8354 78.7089 87.9698 70.6754L87.602 65.0696L76.2549 65.7255L71.8603 71.9706L64.2893 82.5867L69.3133 89.5138Z" fill="#02C7DD"/>
<path d="M77.4275 44.946C66.5623 46.3625 58.144 55.6778 58.144 66.9229C58.144 68.9913 58.426 71.0165 58.9741 72.9596L59.5653 73.6683L61.5093 78.6669C61.8184 79.1596 62.1475 79.6424 62.4974 80.1142L62.5905 80.2427L73.7767 77.2613L75.6686 71.9711L80.3083 73.0761L81.7751 57.5805L78.7252 50.8687L77.4275 44.946Z" fill="#2ED1E2"/>
<path d="M59.5652 73.6684L75.6684 71.9712C73.0764 80.4451 68.9862 87.4129 63.9851 91.8891C60.7939 93.0615 57.4296 93.8739 53.9387 94.2781C56.3397 89.8883 58.3164 82.635 59.5652 73.6684Z" fill="#A6E7F0"/>
<path d="M37.7992 73.7087C39.0902 82.7456 41.1272 90.001 43.5906 94.2681C39.7799 93.8196 36.1181 92.8826 32.6694 91.5232C27.4069 86.5482 23.184 79.2004 20.6282 70.439C25.7821 71.9733 31.5815 73.0974 37.7992 73.7087Z" fill="#A6E7F0"/>
<path d="M61.0229 50.8691V51.2794C61.0229 59.3732 60.4961 66.9945 59.565 73.6687L57.162 73.922C54.4111 74.1292 51.5878 74.2378 48.7082 74.2378C44.9639 74.2378 41.3141 74.0548 37.7991 73.7089C36.8278 66.9281 36.2769 59.146 36.2769 50.8691H61.0229Z" fill="#2ED1E2"/>
<path d="M90.8606 37.5068L87.8281 32.499L78.3669 28.9741L76.177 31.1179L72.3271 33.4819L74.1669 47.1576C74.1669 47.1576 78.7248 51.07 78.7248 50.8689L79.3261 54.3323L90.4519 54.9456L92.8252 50.8689C92.8272 50.7664 92.8272 50.6618 92.8272 50.5593C92.8272 46.0148 92.1395 41.6311 90.8606 37.5068Z" fill="#2ED1E2"/>
<path d="M78.725 50.8691H92.8254C92.7772 58.0018 91.0317 64.7322 87.9711 70.6765L75.6685 71.9715C77.6049 65.6392 78.7049 58.4683 78.725 50.8691Z" fill="#02C7DD"/>
<path d="M20.9897 53.858C20.9897 51.176 21.1421 48.5369 21.4317 45.9497H21.0215L17.9134 50.8688L13.8142 53.8577L15.3137 65.5724L20.6281 70.4388L24.0497 75.2893L24.3618 75.3436C22.1856 68.6831 20.9897 61.4374 20.9897 53.858Z" fill="#2ED1E2"/>
<path d="M17.9133 50.8691C17.9133 57.8449 18.8826 64.4708 20.628 70.4392C15.3535 68.8707 10.7525 66.8738 7.06254 64.5553C5.62073 60.252 4.82441 55.651 4.79224 50.8691H17.9133Z" fill="#6BD9E7"/>
<path d="M78.7247 50.667V50.868H62.2494H61.0228C61.0047 42.5691 60.4316 34.7789 59.4402 28.0122C65.4789 28.5934 71.1275 29.6611 76.1769 31.117C77.8117 37.0632 78.7247 43.6871 78.7247 50.667Z" fill="#A6E7F0"/>
<path d="M19.7996 31.0113L20.5832 33.8485L25.1073 34.3868L30.9821 26.2861C33.4276 22.9875 34.6856 19.0682 34.6207 14.9509C34.5895 12.981 34.2428 11.0578 33.6148 9.23535C29.1627 10.8728 25.048 13.2077 21.4043 16.1104L19.7996 31.0113Z" fill="#02C7DD"/>
<path d="M19.7996 28.0132L13.456 28.9742L8.37971 33.1229C8.09557 33.7804 7.82752 34.4464 7.57495 35.1201L7.72175 35.3226C8.47644 36.3634 8.99686 37.5281 9.26833 38.7847L9.75979 41.0593C10.398 44.0123 13.054 46.1557 16.0752 46.1557C19.0964 46.1557 21.7524 44.0123 22.3906 41.0593L22.8821 38.7847C23.1538 37.5279 23.674 36.3632 24.4287 35.3226L25.1242 34.3636L19.7996 28.0132Z" fill="#02C7DD"/>
<path d="M37.7991 28.0293C36.8278 34.81 36.2768 42.5922 36.2768 50.869H17.9133C17.9133 49.8877 17.9355 48.9145 17.9737 47.9472L19.7995 31.0115L31.6256 28.8236C33.6305 28.5019 35.6917 28.2364 37.7991 28.0293Z" fill="#A6E7F0"/>
<path d="M63.5608 9.07471C76.5652 13.6998 86.7545 24.265 90.8607 37.5068C86.9515 34.961 81.9544 32.7852 76.1771 31.1181C73.563 21.6086 69.0988 13.8265 63.5608 9.07471Z" fill="#A6E7F0"/>
<path d="M53.3011 7.20034C55.9092 11.2925 58.0729 18.6805 59.4403 28.0131C55.9796 27.6773 52.3881 27.5003 48.7082 27.5003C44.9659 27.5003 41.3161 27.6833 37.7991 28.0292C39.1604 18.5036 41.3483 10.9567 43.9926 6.80219C45.5732 6.62925 47.1819 6.54077 48.8087 6.54077C50.1842 6.54077 51.5455 6.60311 52.8888 6.72778L53.3011 7.20034Z" fill="#2ED1E2"/>
<path d="M21.4045 16.1108L19.7998 31.0116L8.37988 33.123C11.2695 26.4287 15.7739 20.5951 21.4045 16.1108Z" fill="#2ED1E2"/>
<path d="M92.8246 50.8672C92.8266 50.7647 92.8266 50.6601 92.8266 50.5576C92.8266 49.9088 92.8109 49.2639 92.7832 48.6223C89.2735 46.2128 85.1512 44.8651 80.8396 44.7636C80.6621 44.7593 80.4839 44.7573 80.3074 44.7573C78.105 44.7573 75.9775 45.0817 73.968 45.6825L74.1663 47.1557C74.1663 47.1557 78.7242 51.0681 78.7242 50.867L79.3254 54.3304L90.4513 54.9437L92.8246 50.8672Z" fill="#02C7DD"/>
<path d="M78.7248 50.8691C78.7248 50.8027 78.7248 50.7344 78.7248 50.668C78.7248 48.6915 78.6514 46.7439 78.5094 44.8318C73.3115 45.2519 68.612 47.4731 65.0425 50.8691H78.7248Z" fill="#6BD9E7"/>
<path d="M58.144 66.9232C58.144 69.2584 58.5044 71.538 59.2008 73.7069L59.5653 73.6685C60.3082 68.3436 60.7926 62.4147 60.9587 56.1252C59.1672 59.3224 58.144 63.0053 58.144 66.9232Z" fill="#02C7DD"/>
<path d="M59.4534 74.4468C60.1785 76.4546 61.1956 78.3602 62.4965 80.1141L67.9291 87.604C71.1431 83.4264 73.7955 78.0913 75.6676 71.9709L59.5644 73.6681C59.5282 73.9292 59.491 74.1886 59.4534 74.4468Z" fill="#6BD9E7"/>
<path d="M80.7458 48.7859C70.5261 48.5452 62.1658 56.7577 62.1658 66.923C62.1658 70.9747 63.495 74.7154 65.7395 77.735L73.941 89.0438C75.2869 90.8997 76.232 93.0152 76.7162 95.2559L77.3301 98.0967C77.6332 99.4989 78.8735 100.5 80.3081 100.5C81.7426 100.5 82.983 99.4989 83.286 98.0967L83.8999 95.2559C84.3842 93.0152 85.3293 90.8997 86.6752 89.0438L94.8766 77.735C97.1755 74.6424 98.5141 70.7938 98.4482 66.6292C98.2947 56.9481 90.4255 49.014 80.7458 48.7859Z" fill="#AED559"/>
<path d="M83.0948 94.0155C82.6105 91.7748 81.6654 89.6593 80.3195 87.8035L72.1181 76.4946C69.8733 73.4751 68.5443 69.7342 68.5443 65.6826C68.5443 57.9958 73.3276 51.4252 80.078 48.7825C70.1655 48.9069 62.1658 56.9813 62.1658 66.9234C62.1658 70.9751 63.495 74.7158 65.7395 77.7353L73.941 89.0442C75.2869 90.9001 76.232 93.0155 76.7162 95.2563L77.3301 98.0971C77.6332 99.4992 78.8735 100.5 80.3081 100.5C81.7426 100.5 82.983 99.4992 83.286 98.0971L83.6315 96.4988L83.0948 94.0155Z" fill="#7FAB38"/>
<path d="M73.6314 61.1444C75.2504 59.2742 77.6411 58.092 80.3082 58.092C85.1854 58.092 89.1388 62.0467 89.1388 66.9239C89.1388 69.1339 88.3276 71.1538 86.985 72.702C85.366 74.5721 82.9752 75.7543 80.3082 75.7543C75.431 75.7543 71.4775 71.8009 71.4775 66.9237C71.4775 64.7137 72.2889 62.694 73.6314 61.1444Z" fill="#F9F7F8"/>
<path d="M25.1831 30.0286L19.7995 31.0115L17.9737 47.9472C17.9355 48.9145 17.9133 49.8878 17.9133 50.8691H21.0523C21.3604 43.4792 22.807 36.4612 25.1831 30.0286Z" fill="#6BD9E7"/>
<path d="M22.8165 38.8475C23.0882 37.5907 23.6084 36.426 24.3631 35.3853L28.7573 29.3542L19.7996 31.0114L18.2065 45.7879C20.2772 45.0551 21.8432 43.3511 22.3251 41.122L22.8165 38.8475Z" fill="#2ED1E2"/>
<path d="M16.426 0.728249C8.24343 0.535605 1.54956 7.11103 1.54956 15.2499C1.54956 18.4939 2.61373 21.4891 4.41106 23.9068L10.9776 32.9615C12.0553 34.4473 12.812 36.1411 13.1997 37.9352L13.6911 40.2098C13.9339 41.3324 14.9268 42.1338 16.0755 42.1338C17.2241 42.1338 18.2171 41.3324 18.4598 40.2098L18.9512 37.9352C19.3389 36.1411 20.0956 34.4473 21.1733 32.9615L27.7399 23.9068C29.5804 21.4308 30.6522 18.3493 30.5994 15.0149C30.4767 7.26346 24.1762 0.910838 16.426 0.728249Z" fill="#AED559"/>
<path d="M18.5286 37.935C18.1409 36.1409 17.3842 34.4471 16.3065 32.9613L9.73994 23.9068C7.9426 21.4891 6.87843 18.4941 6.87843 15.2499C6.87843 8.14202 11.9887 2.22435 18.7325 0.968148C17.983 0.828391 17.2098 0.746749 16.4258 0.728249C8.24343 0.535605 1.54956 7.11103 1.54956 15.2499C1.54956 18.4939 2.61373 21.4891 4.41106 23.9068L10.9776 32.9613C12.0553 34.4471 12.812 36.1409 13.1997 37.935L13.6911 40.2096C13.9339 41.3322 14.9268 42.1336 16.0755 42.1336C17.2241 42.1336 18.2171 41.3322 18.4598 40.2096L18.7399 38.9129L18.5286 37.935Z" fill="#7FAB38"/>
<path d="M10.7297 10.623C12.0259 9.12548 13.9401 8.17896 16.0754 8.17896C19.9804 8.17896 23.1457 11.3453 23.1457 15.2503C23.1457 17.0199 22.4962 18.637 21.4212 19.8767C20.125 21.3742 18.2108 22.3208 16.0754 22.3208C12.1705 22.3208 9.00513 19.1554 9.00513 15.2505C9.00513 13.4809 9.65465 11.8637 10.7297 10.623Z" fill="#F9F7F8"/>
<path d="M23.1404 71.1392C22.2878 70.916 21.4488 70.6833 20.6282 70.439C23.0165 78.6263 26.8609 85.5786 31.6487 90.5143C27.8732 84.812 24.9598 78.2603 23.1404 71.1392Z" fill="#6BD9E7"/>
</g>
<defs>
<clipPath id="clip0_99_658">
<rect width="100" height="100" fill="white" transform="translate(0 0.5)"/>
</clipPath>
</defs>
</svg>
