<svg width="100" height="101" viewBox="0 0 100 101" fill="none" xmlns="http://www.w3.org/2000/svg">
<g clip-path="url(#clip0_99_197)">
<path d="M8.18855 5.80627C2.13692 9.02511 -0.15953 16.5408 3.06007 22.5932L25.1815 64.181C28.4003 70.2327 35.9161 72.5291 41.9685 69.3103C48.0201 66.0907 50.3165 58.575 47.0977 52.5233L24.9763 10.9355C21.7567 4.88311 14.241 2.58666 8.18855 5.80627Z" fill="#EAB875"/>
<path d="M47.0978 52.5226L24.9764 10.9355C21.7568 4.88311 14.2411 2.58666 8.18866 5.80627C7.86212 5.98022 7.54855 6.16866 7.24414 6.36627C12.1941 4.36279 18.3709 7.10326 21.4157 12.8291L43.5379 54.4162C46.5836 60.1421 45.4033 66.7956 40.976 69.7803C41.3102 69.6384 41.642 69.4835 41.9686 69.3095C48.0202 66.0907 50.3167 58.575 47.0978 52.5226Z" fill="#C68D4E"/>
<path d="M23.9708 38.1473C22.979 36.2827 18.4243 36.7664 13.7978 39.2268C13.2943 39.4946 12.8128 39.7754 12.3528 40.0638L15.8882 46.7098C16.3849 46.4893 16.8862 46.2467 17.3897 45.9796C22.0162 43.5184 24.9626 40.0119 23.9708 38.1473Z" fill="#FFF7AF"/>
<path d="M31.0074 51.3759C30.0156 49.5112 25.4609 49.9949 20.8344 52.4562C20.3316 52.7232 19.8502 53.004 19.3894 53.2924L22.9249 59.9383C23.4215 59.7186 23.9228 59.476 24.4263 59.2082C29.0528 56.747 31.9993 53.2405 31.0074 51.3759Z" fill="#FFF7AF"/>
<path d="M6.76117 25.9982C6.25763 26.266 5.77621 26.546 5.31616 26.8351L8.85162 33.4811C9.3483 33.2606 9.84955 33.018 10.3523 32.7502C14.9788 30.2897 17.926 26.7833 16.9342 24.9186C15.9424 23.054 11.3876 23.5369 6.76117 25.9982Z" fill="#FFF7AF"/>
<path d="M49.5125 4.25519V12.6521C49.5125 12.9008 49.7139 13.1022 49.9626 13.1022H62.3062C62.5549 13.1022 62.7563 12.9008 62.7563 12.6521V4.25519C62.7563 2.18152 61.0748 0.5 59.0011 0.5H53.2676C51.194 0.5 49.5125 2.18152 49.5125 4.25519Z" fill="#ED5176"/>
<path d="M59.0013 0.5H55.7046C57.3998 0.5 58.7739 2.18152 58.7739 4.25519V12.6521C58.7739 12.9008 58.6091 13.1022 58.4062 13.1022H62.3063C62.555 13.1022 62.7557 12.9008 62.7557 12.6521V4.25519C62.7564 2.18152 61.0749 0.5 59.0013 0.5Z" fill="#BA365F"/>
<path d="M61.6645 18.4084V13.1022H50.6042V18.4084C50.6042 19.7382 49.9328 20.9803 48.8151 21.702C46.8948 22.9418 44.0109 24.9781 43.2052 26.4918C39.5851 33.2964 41.4054 57.3221 41.4054 57.3221H70.8625C70.8625 57.3221 72.6829 33.2964 69.0627 26.4918C68.2571 24.9781 65.3732 22.9418 63.4529 21.702C62.3359 20.9803 61.6645 19.7382 61.6645 18.4084Z" fill="#804C68"/>
<path d="M69.0627 26.4918C68.2578 24.9789 65.3732 22.9426 63.4529 21.702C62.3359 20.981 61.6645 19.7382 61.6645 18.4084V13.1022H57.8811V18.4084C57.8811 19.7382 58.4304 20.9803 59.3437 21.702C60.913 22.9418 63.2705 24.9781 63.9289 26.4918C66.8876 33.2964 65.3999 57.3221 65.3999 57.3221H70.8633C70.8633 57.3221 72.6829 33.2964 69.0627 26.4918Z" fill="#60364E"/>
<path d="M78.3599 35.3274H59.9181L54.3784 42.29V74.959H83.8988V42.29L78.3599 35.3274Z" fill="#E9E9EA"/>
<path d="M78.36 35.3274H74.6819L79.3717 42.29V74.959H83.899V42.29L78.36 35.3274Z" fill="#C5C4CC"/>
<path d="M61.6982 27.5203H76.5793C77.5627 27.5203 78.36 28.3168 78.36 29.3002V35.3274H59.9182V29.3002C59.9182 28.3168 60.7147 27.5203 61.6982 27.5203Z" fill="#C8E7F7"/>
<path d="M76.5794 27.5203H73.0439C73.9488 27.5203 74.682 28.2534 74.682 29.1583V35.3274H78.3601V29.3002C78.3601 28.3175 77.5628 27.5203 76.5794 27.5203Z" fill="#8CBCD6"/>
<path d="M41.1012 41.3913C41.105 41.3882 41.108 41.3859 41.1119 41.3829C43.7837 39.2306 43.7951 39.2207 50.1145 34.1304C50.3465 33.945 50.5624 33.7336 50.7569 33.4948C52.2416 31.6752 51.97 28.9973 50.1504 27.5126C48.3308 26.0287 45.6529 26.3003 44.1682 28.1192C43.9736 28.358 43.8096 28.612 43.6753 28.876C39.9568 36.0888 39.9491 36.1026 38.3775 39.152C38.3752 39.1559 38.3729 39.1597 38.3714 39.1635C38.3706 39.1643 38.3706 39.165 38.3698 39.1658C37.9876 39.9058 38.1608 40.8374 38.8322 41.3852C39.5036 41.933 40.4504 41.9162 41.0989 41.392C41.0996 41.392 41.1004 41.392 41.1012 41.3913Z" fill="#7FAB38"/>
<path d="M35.2393 41.3913C35.2355 41.3882 35.2324 41.3859 35.2286 41.3829C32.5568 39.2306 32.5446 39.2207 26.2252 34.1304C25.994 33.945 25.7781 33.7336 25.5828 33.4948C24.0988 31.6752 24.3705 28.9973 26.1901 27.5126C28.0089 26.0287 30.6876 26.3003 32.1715 28.1192C32.3668 28.358 32.5301 28.612 32.6651 28.876C36.3837 36.0888 36.3913 36.1026 37.963 39.152C37.9653 39.1559 37.9668 39.1597 37.9691 39.1635C37.9699 39.1643 37.9699 39.165 37.9699 39.1658C38.3528 39.9058 38.1797 40.8374 37.5083 41.3852C36.8369 41.933 35.8893 41.9162 35.2408 41.392C35.2401 41.392 35.2393 41.392 35.2393 41.3913Z" fill="#7FAB38"/>
<path d="M40.8797 40.0905C40.8813 40.0836 40.8828 40.0767 40.8843 40.0706C41.9753 34.907 41.9807 34.8842 44.5617 22.6725C44.6578 22.227 44.7089 21.7654 44.7089 21.2909C44.7089 17.6791 41.7815 14.7517 38.1698 14.7517C34.558 14.7517 31.6306 17.6791 31.6306 21.2909C31.6306 21.7654 31.6825 22.227 31.7779 22.6725C34.3596 34.8842 34.3642 34.907 35.456 40.0706C35.4575 40.0767 35.4583 40.0836 35.4598 40.0905C35.4606 40.0912 35.4606 40.0927 35.4606 40.0935H35.4613C35.7253 41.3478 36.8369 42.29 38.1698 42.29C39.5026 42.29 40.615 41.3478 40.879 40.0935C40.879 40.0927 40.8797 40.0912 40.8797 40.0905Z" fill="#AED559"/>
<path d="M49.1118 50.8182C49.2758 50.0545 49.3651 49.2626 49.3651 48.4493C49.3651 42.2664 44.3526 37.2539 38.1697 37.2539C31.9869 37.2539 26.9744 42.2664 26.9744 48.4493C26.9744 49.2626 27.0636 50.0545 27.2284 50.8182C31.8328 72.3636 31.8434 72.4147 33.7088 81.142C34.1246 83.2256 35.9633 84.7965 38.1697 84.7965C40.3762 84.7965 42.2156 83.2256 42.6314 81.142C44.496 72.4147 44.5075 72.3636 49.1118 50.8182Z" fill="#FFCD34"/>
<path d="M38.17 37.2539C37.7168 37.2539 37.272 37.2844 36.8325 37.3363C41.1996 37.9978 44.587 42.7188 44.587 48.4493C44.587 49.2626 44.5168 50.0545 44.3871 50.8182C40.7655 72.3636 40.7571 72.4147 39.2899 81.1412C39.0321 82.7854 38.0761 84.106 36.8333 84.5928C37.256 84.7225 37.7046 84.7965 38.17 84.7965C40.3764 84.7965 42.2158 83.2256 42.6316 81.1412C44.4962 72.4147 44.5077 72.3636 49.112 50.8182C49.2768 50.0545 49.3653 49.2626 49.3653 48.4493C49.3653 42.2664 44.3528 37.2539 38.17 37.2539Z" fill="#E69012"/>
<path d="M11.387 59.9933L12.2201 67.1207L12.8434 72.4437L15.5793 95.8308C15.8906 98.4927 18.1458 100.5 20.8261 100.5H79.1871C81.8673 100.5 84.1226 98.4927 84.4338 95.8308L88.6262 59.9933H11.387Z" fill="#AED559"/>
<path d="M88.0944 64.5427L88.6262 59.9933H11.387L11.9187 64.5427H88.0944Z" fill="#7FAB38"/>
<path d="M83.5961 59.9933L79.4037 95.8308C79.0924 98.4927 76.8372 100.5 74.157 100.5H79.187C81.8672 100.5 84.1225 98.4927 84.4338 95.8308L88.6261 59.9933H83.5961Z" fill="#7FAB38"/>
<path d="M5.91504 52.2769V57.2025C5.91504 58.7436 7.16473 59.9933 8.70587 59.9933H91.307C92.8482 59.9933 94.0979 58.7436 94.0979 57.2025V52.2769C94.0979 50.735 92.8482 49.4854 91.307 49.4854H8.70587C7.16473 49.4854 5.91504 50.735 5.91504 52.2769Z" fill="#90B6E1"/>
<path d="M91.307 49.4854H86.196C87.7372 49.4854 88.9869 50.735 88.9869 52.2769V57.2025C88.9869 58.7436 87.7372 59.9933 86.196 59.9933H91.307C92.8481 59.9933 94.0978 58.7436 94.0978 57.2025V52.2769C94.0978 50.735 92.8481 49.4854 91.307 49.4854Z" fill="#5692D8"/>
<path d="M96.2014 92.1091C95.1043 92.264 93.9706 91.7658 93.364 90.7564L73.3369 57.3824C72.5289 56.0358 72.9653 54.2895 74.3112 53.4815C75.6585 52.6736 77.4041 53.11 78.2128 54.4565L98.24 87.8306C99.0479 89.1764 98.6115 90.9235 97.2657 91.7315C96.9285 91.9337 96.5669 92.0573 96.2014 92.1091Z" fill="#575B7A"/>
<path d="M3.81174 92.1091C4.90885 92.264 6.04257 91.7658 6.64911 90.7564L26.6763 57.3824C27.4842 56.0358 27.0478 54.2895 25.702 53.4815C24.3554 52.6736 22.609 53.11 21.8011 54.4565L1.77317 87.8306C0.965213 89.1772 1.40161 90.9235 2.74744 91.7315C3.08466 91.9337 3.44629 92.0573 3.81174 92.1091Z" fill="#575B7A"/>
<path d="M32.9117 74.6783C32.9117 76.0706 31.7833 77.1998 30.3901 77.1998C28.9978 77.1998 27.8694 76.0706 27.8694 74.6783V69.6856C27.8694 68.2932 28.9978 67.1641 30.3901 67.1641C31.7825 67.1641 32.9117 68.2932 32.9117 69.6856V74.6783Z" fill="#7FAB38"/>
<path d="M42.72 90.9915C42.72 92.3839 41.5909 93.513 40.1985 93.513C38.8062 93.513 37.677 92.3839 37.677 90.9915V85.9988C37.677 84.6064 38.8062 83.4773 40.1985 83.4773C41.5909 83.4773 42.72 84.6064 42.72 85.9988V90.9915Z" fill="#7FAB38"/>
<path d="M52.5276 74.6783C52.5276 76.0706 51.3992 77.1998 50.0069 77.1998C48.6145 77.1998 47.4854 76.0706 47.4854 74.6783V69.6856C47.4854 68.2932 48.6145 67.1641 50.0069 67.1641C51.3992 67.1641 52.5276 68.2932 52.5276 69.6856V74.6783Z" fill="#7FAB38"/>
<path d="M62.336 90.9915C62.336 92.3839 61.2068 93.513 59.8145 93.513C58.4221 93.513 57.293 92.3839 57.293 90.9915V85.9988C57.293 84.6064 58.4221 83.4773 59.8145 83.4773C61.2068 83.4773 62.336 84.6064 62.336 85.9988V90.9915Z" fill="#7FAB38"/>
<path d="M72.1436 74.6783C72.1436 76.0706 71.0152 77.1998 69.6221 77.1998C68.2297 77.1998 67.1013 76.0706 67.1013 74.6783V69.6856C67.1013 68.2932 68.2297 67.1641 69.6221 67.1641C71.0144 67.1641 72.1436 68.2932 72.1436 69.6856V74.6783Z" fill="#7FAB38"/>
<path d="M81.3911 43.7549H73.9326C73.1231 43.7549 72.4678 43.0988 72.4678 42.29C72.4678 41.4806 73.1231 40.8252 73.9326 40.8252H81.3911C82.2006 40.8252 82.856 41.4806 82.856 42.29C82.856 43.0988 82.2006 43.7549 81.3911 43.7549Z" fill="#C5C4CC"/>
</g>
<defs>
<clipPath id="clip0_99_197">
<rect width="100" height="100" fill="white" transform="translate(0 0.5)"/>
</clipPath>
</defs>
</svg>
