<svg width="61" height="60" viewBox="0 0 61 60" fill="none" xmlns="http://www.w3.org/2000/svg">
<path d="M47.9232 19.0447L46.3669 17.7405L47.9232 16.4363C49.269 15.3085 51.2299 15.3085 52.5757 16.4363L53.5798 17.2778C53.8678 17.5191 53.8678 17.9619 53.5798 18.2032L52.5757 19.0447C51.2299 20.1725 49.269 20.1725 47.9232 19.0447Z" fill="#B3E59F"/>
<path d="M46.3669 24.2102C45.8669 24.2102 45.4615 23.8048 45.4615 23.3048V14.7551C45.4615 14.2551 45.8669 13.8497 46.3669 13.8497C46.867 13.8497 47.2723 14.2551 47.2723 14.7551V23.3047C47.2723 23.8047 46.867 24.2102 46.3669 24.2102Z" fill="#78C2A4"/>
<path d="M12.7824 19.0447L14.3386 17.7405L12.7824 16.4363C11.4366 15.3085 9.4757 15.3085 8.12992 16.4363L7.12574 17.2778C6.83781 17.5191 6.83781 17.9619 7.12574 18.2032L8.12992 19.0447C9.4757 20.1725 11.4366 20.1725 12.7824 19.0447Z" fill="#B3E59F"/>
<path d="M14.3386 26.2672C13.8386 26.2672 13.4332 25.8618 13.4332 25.3618V14.7551C13.4332 14.2551 13.8386 13.8497 14.3386 13.8497C14.8387 13.8497 15.244 14.2551 15.244 14.7551V25.3618C15.244 25.8618 14.8387 26.2672 14.3386 26.2672Z" fill="#78C2A4"/>
<path d="M58.0261 10.6279L58.0562 10.618C58.2736 10.5463 58.2736 10.2386 58.0562 10.1669L58.0259 10.157C56.7396 9.73251 55.7305 8.72317 55.3059 7.43681C55.3025 7.42661 55.2992 7.41665 55.296 7.40657C55.2242 7.18919 54.9167 7.18942 54.845 7.40681L54.8351 7.43716C54.4106 8.72341 53.4016 9.73239 52.1153 10.157L52.0849 10.1669C51.8675 10.2386 51.8675 10.5463 52.0849 10.618L52.1153 10.6279C53.4015 11.0524 54.4106 12.0617 54.8352 13.3481C54.8386 13.3583 54.8419 13.3683 54.8451 13.3783C54.9169 13.5957 55.2244 13.5955 55.2961 13.3781L55.306 13.348C55.7306 12.0615 56.7397 11.0524 58.0261 10.6279Z" fill="#FFC269"/>
<path d="M33.4613 11.4911L30.7413 5.08672C30.4914 4.49844 29.6576 4.49844 29.4079 5.08672L26.6879 11.4911H33.4613Z" fill="#78C2A4"/>
<path d="M28.1984 9.97668L24.3823 7.93961C23.8822 7.67266 23.3232 8.17984 23.5405 8.70344L26.4286 15.6633H33.7204L36.6084 8.70344C36.8257 8.17984 36.2667 7.67266 35.7667 7.93961L31.9507 9.97668C30.7783 10.6026 29.3708 10.6026 28.1984 9.97668Z" fill="#B3E59F"/>
<path d="M35.7683 39.2243H24.3808C20.7565 39.2243 19.7104 36.2862 19.7104 32.6618V20.1681C19.7104 16.5437 22.6533 13.6056 26.2776 13.6056H35.7682C39.3926 13.6056 42.3307 16.5437 42.3307 20.1681V32.6618C42.3308 36.2862 39.3927 39.2243 35.7683 39.2243Z" fill="#FFC269"/>
<path d="M20.2811 32.4638V20.3663C20.2811 16.6326 23.3079 13.6057 27.0416 13.6057H24.5788C20.8451 13.6057 17.8182 16.6326 17.8182 20.3663V32.4639C17.8182 36.1976 20.8451 39.2244 24.5788 39.2244H27.0416C23.3079 39.2243 20.2811 36.1976 20.2811 32.4638Z" fill="#FFA95F"/>
<path d="M55.9167 32.2657C55.9167 37.5399 51.6411 41.8155 46.3668 41.8155C41.0926 41.8155 38.3221 37.5399 38.3221 32.2657C38.3221 26.9914 41.0926 23.0543 46.3668 23.0543C46.8179 23.0543 47.2616 22.7472 47.696 22.8077C52.3412 23.4545 55.9167 27.4426 55.9167 32.2657Z" fill="#B3E59F"/>
<path d="M39.7725 32.2657C39.7725 27.4941 43.2722 23.5404 47.8446 22.8301C47.363 22.7552 46.8696 22.7159 46.367 22.7159C41.0927 22.7159 36.8171 26.9915 36.8171 32.2658C36.8171 37.54 41.0927 41.8156 46.367 41.8156C46.8696 41.8156 47.363 41.7763 47.8446 41.7015C43.2722 40.991 39.7725 37.0373 39.7725 32.2657Z" fill="#95D6A4"/>
<path d="M20.047 38.2318L24.0419 29.4388C24.4114 28.6256 24.5304 27.7209 24.3839 26.8399C23.9516 24.2397 21.3866 22.5665 18.8326 23.2187L15.4518 24.082C14.7214 24.2685 13.9559 24.2685 13.2255 24.082L9.84476 23.2187C7.29078 22.5665 4.72589 24.2397 4.29347 26.8399C4.14699 27.7209 4.26605 28.6257 4.63542 29.4388L8.63035 38.2318C9.36019 39.8383 10.9619 40.8699 12.7265 40.8699H15.9509C17.7154 40.8698 19.3172 39.8383 20.047 38.2318Z" fill="#E5646E"/>
<path d="M11.0504 38.2318L7.05547 29.4388C6.68597 28.6256 6.56703 27.7209 6.71351 26.8399C7.01129 25.0489 8.32097 23.6979 9.94191 23.2435L9.84476 23.2187C7.29078 22.5665 4.72589 24.2397 4.29347 26.8399C4.14699 27.7209 4.26605 28.6257 4.63542 29.4388L8.63035 38.2318C9.36019 39.8383 10.9619 40.8699 12.7265 40.8699H15.1466C13.382 40.8698 11.7802 39.8383 11.0504 38.2318Z" fill="#DB4655"/>
<path d="M56.4738 60H6.19649C5.54926 60 4.04492 59.4753 4.04492 58.8281L5.66914 39.2242H49.6074L57.6457 41.386V58.8281C57.6457 59.4753 57.121 60 56.4738 60Z" fill="#F4DBB3"/>
<path d="M5.57479 58.7927V39.2242H4.23253L2.50354 41.386V58.7927C2.50354 59.4595 3.04401 60 3.71081 60H6.78206C6.11526 60 5.57479 59.4595 5.57479 58.7927Z" fill="#EAC89F"/>
<path d="M58.9028 35.0939H4.58635C4.35045 35.0939 2.83557 36.1078 2.83557 36.1078V40.2422C2.83557 40.2422 4.24264 41.386 4.48182 41.386H58.9028C59.55 41.386 60.0747 40.8614 60.0747 40.2142V36.2657C60.0747 35.6185 59.55 35.0939 58.9028 35.0939Z" fill="#D2AF8C"/>
<path d="M3.72533 40.1788V36.301C3.72533 35.6342 4.2658 35.0938 4.9326 35.0938H1.28185C0.615054 35.0939 0.074585 35.6343 0.074585 36.3011V40.1789C0.074585 40.8457 0.615054 41.3861 1.28185 41.3861H4.9326C4.2658 41.386 3.72533 40.8455 3.72533 40.1788Z" fill="#C69B75"/>
<path d="M24.7434 20.796H23.9321C23.4321 20.796 23.0267 20.3907 23.0267 19.8906C23.0267 19.3906 23.4321 18.9852 23.9321 18.9852H24.7434C25.2435 18.9852 25.6488 19.3906 25.6488 19.8906C25.6488 20.3907 25.2435 20.796 24.7434 20.796Z" fill="#F49751"/>
<path d="M30.4802 20.796H29.6689C29.1689 20.796 28.7635 20.3907 28.7635 19.8906C28.7635 19.3906 29.1689 18.9852 29.6689 18.9852H30.4802C30.9803 18.9852 31.3856 19.3906 31.3856 19.8906C31.3856 20.3907 30.9803 20.796 30.4802 20.796Z" fill="#F49751"/>
<path d="M36.2169 20.796H35.4056C34.9056 20.796 34.5002 20.3907 34.5002 19.8906C34.5002 19.3906 34.9056 18.9852 35.4056 18.9852H36.2169C36.717 18.9852 37.1223 19.3906 37.1223 19.8906C37.1223 20.3907 36.7171 20.796 36.2169 20.796Z" fill="#F49751"/>
<path d="M30.4802 31.0209H29.6689C29.1689 31.0209 28.7635 30.6155 28.7635 30.1155C28.7635 29.6154 29.1689 29.2101 29.6689 29.2101H30.4802C30.9803 29.2101 31.3856 29.6154 31.3856 30.1155C31.3857 30.6155 30.9803 31.0209 30.4802 31.0209Z" fill="#F49751"/>
<path d="M27.6118 26.0427H26.8005C26.3005 26.0427 25.8951 25.6374 25.8951 25.1373C25.8951 24.6373 26.3005 24.2319 26.8005 24.2319H27.6118C28.1119 24.2319 28.5172 24.6373 28.5172 25.1373C28.5172 25.6374 28.112 26.0427 27.6118 26.0427Z" fill="#F49751"/>
<path d="M33.3488 26.0427H32.5375C32.0374 26.0427 31.6321 25.6374 31.6321 25.1373C31.6321 24.6373 32.0374 24.2319 32.5375 24.2319H33.3488C33.8488 24.2319 34.2542 24.6373 34.2542 25.1373C34.2542 25.6374 33.8488 26.0427 33.3488 26.0427Z" fill="#F49751"/>
<path d="M33.7513 51.3313H26.3978C25.0007 51.3313 23.868 50.1987 23.868 48.8016V48.6489C23.868 47.2518 25.0007 46.1191 26.3978 46.1191H33.7513C35.1484 46.1191 36.281 47.2518 36.281 48.6489V48.8016C36.281 50.1987 35.1484 51.3313 33.7513 51.3313Z" fill="#D2AF8C"/>
<path d="M13.014 6.22035L13.0441 6.21039C13.2615 6.13867 13.2615 5.83105 13.0441 5.75933L13.0138 5.74937C11.7275 5.32492 10.7184 4.31558 10.294 3.02921C10.2906 3.01902 10.2873 3.00906 10.284 2.99898C10.2123 2.7816 9.90478 2.78183 9.83306 2.99921L9.8231 3.02957C9.39853 4.31582 8.38955 5.32492 7.10318 5.74937L7.07283 5.75933C6.85544 5.83105 6.85544 6.13867 7.07283 6.21039L7.10318 6.22035C8.38943 6.6448 9.39853 7.65414 9.8231 8.94051C9.8265 8.9507 9.82978 8.96066 9.83306 8.97074C9.90478 9.18812 10.2123 9.18789 10.284 8.97051L10.294 8.94039C10.7185 7.6539 11.7276 6.64492 13.014 6.22035Z" fill="#FFC269"/>
<path d="M48.4855 4.90837L48.5292 4.89396C48.8446 4.78989 48.8446 4.34388 48.5292 4.23982L48.4853 4.22529C46.6197 3.60958 45.1561 2.14567 44.5405 0.280166C44.5357 0.265518 44.5308 0.250869 44.5261 0.236338C44.422 -0.0790136 43.976 -0.0786621 43.872 0.23669L43.8574 0.280635C43.2417 2.14626 41.7784 3.60958 39.9128 4.22529L39.8688 4.23982C39.5535 4.34388 39.5535 4.78989 39.8688 4.89396L39.9128 4.90849C41.7784 5.52419 43.242 6.9881 43.8575 8.85361C43.8624 8.86826 43.8673 8.8829 43.872 8.89744C43.976 9.21279 44.422 9.21243 44.5261 8.89708L44.5405 8.85337C45.1562 6.98763 46.6198 5.52407 48.4855 4.90837Z" fill="#FFC269"/>
</svg>
