<svg width="25" height="25" viewBox="0 0 25 25" fill="none" xmlns="http://www.w3.org/2000/svg">
<g clip-path="url(#clip0_35_257)">
<path d="M24.343 9.3957C23.4127 6.83374 21.6108 4.95356 19.2693 4.10142C17.465 3.44434 15.4001 3.42866 13.3151 4.24575V4.0648C13.3151 2.72251 14.4072 1.63047 15.7495 1.63047C16.1997 1.63047 16.5647 1.26548 16.5647 0.815234C16.5647 0.36499 16.1997 0 15.7495 0C13.5082 0 11.6847 1.82349 11.6847 4.0648V4.24575C9.59972 3.42856 7.53463 3.44438 5.73067 4.10137C3.38912 4.95361 1.58722 6.83374 0.656893 9.3957C-0.254826 11.9066 -0.216056 14.7759 0.766414 17.475C2.4045 21.9759 6.28272 25 10.417 25C11.1238 25 11.8233 24.9083 12.4999 24.7271C13.1764 24.9083 13.8758 25 14.5826 25H14.5827H14.5828C18.7172 25 22.5956 21.9759 24.2334 17.475C25.2158 14.7759 25.2547 11.9066 24.343 9.3957ZM22.7013 16.9174C21.2969 20.7767 18.0343 23.3695 14.5827 23.3695C13.953 23.3695 13.3314 23.2785 12.7348 23.0989C12.5816 23.0527 12.4182 23.0527 12.2649 23.0989C11.6684 23.2785 11.0467 23.3695 10.417 23.3695C6.96563 23.3695 3.70304 20.7766 2.29845 16.9174C1.44674 14.5775 1.40802 12.1039 2.18931 9.9522C2.95216 7.85161 4.40777 6.31777 6.28839 5.6334C8.24122 4.92217 10.3195 5.24507 12.1018 6.24248C12.3544 6.38369 12.6578 6.37671 12.898 6.24248C14.6801 5.24521 16.7579 4.92192 18.7115 5.63345C20.5919 6.31777 22.0476 7.85156 22.8104 9.9522C23.5918 12.1039 23.553 14.5774 22.7013 16.9174Z" fill="white"/>
<path d="M8.47304 6.88049C6.4687 6.88049 4.59316 8.10974 3.72202 10.5088C3.08051 12.2751 3.12016 14.4077 3.83076 16.3597C3.985 16.7837 4.45351 17.0008 4.87558 16.8469C5.29868 16.6929 5.51679 16.2251 5.36274 15.802C4.78105 14.204 4.74155 12.4775 5.25444 11.0653C5.78779 9.5967 6.9061 8.51096 8.47304 8.51096C8.92324 8.51096 9.28828 8.14597 9.28828 7.69573C9.28828 7.24553 8.92329 6.88049 8.47304 6.88049Z" fill="white"/>
</g>
<defs>
<clipPath id="clip0_35_257">
<rect width="25" height="25" fill="white"/>
</clipPath>
</defs>
</svg>
