<svg width="25" height="25" viewBox="0 0 25 25" fill="none" xmlns="http://www.w3.org/2000/svg">
<g clip-path="url(#clip0_35_434)">
<path d="M22.11 3.54175C22.3229 3.31943 22.5052 3.06309 22.6481 2.7771C22.6506 2.77207 22.6531 2.76704 22.6555 2.76196L23.4652 1.04482C23.5722 0.81792 23.5557 0.5521 23.4213 0.340234C23.287 0.128369 23.0536 0 22.8027 0H16.9434C16.6925 0 16.4591 0.128369 16.3248 0.340234C16.1905 0.5521 16.1739 0.81792 16.2809 1.04482L17.0907 2.76196C17.0931 2.76704 17.0956 2.77207 17.098 2.7771C17.241 3.06304 17.4232 3.31939 17.6361 3.54175C15.9269 4.37402 14.7461 6.12881 14.7461 8.1543C14.7461 11.789 11.7452 14.7461 8.05664 14.7461C6.03115 14.7461 4.27637 15.9269 3.44409 17.6361C3.22178 17.4233 2.96543 17.241 2.67944 17.098L1.05996 16.2883C0.832812 16.1747 0.563184 16.187 0.347363 16.3204C0.131396 16.4538 0 16.6895 0 16.9434V22.8027C0 23.0566 0.131396 23.2923 0.347363 23.4258C0.563721 23.5595 0.83335 23.5711 1.05996 23.4579L2.67944 22.6481C2.96538 22.5052 3.22173 22.3229 3.44409 22.11C4.27637 23.8192 6.03115 25 8.05664 25H9.52148C17.9675 25 25 18.1697 25 9.61914V8.1543C25 6.12881 23.8192 4.37402 22.11 3.54175ZM2.02437 21.3379L1.46484 21.6176V18.1284L2.02437 18.4082C2.58281 18.6874 2.92969 19.2487 2.92969 19.873C2.92969 20.4974 2.58281 21.0587 2.02437 21.3379ZM21.6476 1.46484L21.3344 2.12891C21.0541 2.6833 20.4948 3.02734 19.873 3.02734C19.2513 3.02734 18.692 2.6833 18.4117 2.12891L18.0985 1.46484H21.6476ZM23.5352 9.61914C23.5352 17.2925 17.2486 23.5352 9.52148 23.5352H8.05664C6.03735 23.5352 4.39453 21.8923 4.39453 19.873C4.39453 17.8538 6.03735 16.2109 8.05664 16.2109C12.4923 16.2109 16.2109 12.6235 16.2109 8.1543C16.2109 6.13501 17.8538 4.49219 19.873 4.49219C21.8923 4.49219 23.5352 6.13501 23.5352 8.1543V9.61914Z" fill="white"/>
</g>
<defs>
<clipPath id="clip0_35_434">
<rect width="25" height="25" fill="white"/>
</clipPath>
</defs>
</svg>
