<svg width="232" height="36" viewBox="0 0 232 36" fill="none" xmlns="http://www.w3.org/2000/svg">
<path d="M0.36 35V0.439999H20.208V3.968H3.888V15.968H17.328V19.472H3.888V35H0.36ZM34.6684 35.72C32.0924 35.72 29.8924 35.136 28.0684 33.968C26.2444 32.8 24.8444 31.184 23.8684 29.12C22.8924 27.056 22.4044 24.688 22.4044 22.016C22.4044 19.296 22.9004 16.912 23.8924 14.864C24.8844 12.816 26.2924 11.224 28.1164 10.088C29.9564 8.936 32.1404 8.36 34.6684 8.36C37.2604 8.36 39.4684 8.944 41.2924 10.112C43.1324 11.264 44.5324 12.872 45.4924 14.936C46.4684 16.984 46.9564 19.344 46.9564 22.016C46.9564 24.736 46.4684 27.128 45.4924 29.192C44.5164 31.24 43.1084 32.84 41.2684 33.992C39.4284 35.144 37.2284 35.72 34.6684 35.72ZM34.6684 32.336C37.5484 32.336 39.6924 31.384 41.1004 29.48C42.5084 27.56 43.2124 25.072 43.2124 22.016C43.2124 18.88 42.5004 16.384 41.0764 14.528C39.6684 12.672 37.5324 11.744 34.6684 11.744C32.7324 11.744 31.1324 12.184 29.8684 13.064C28.6204 13.928 27.6844 15.136 27.0604 16.688C26.4524 18.224 26.1484 20 26.1484 22.016C26.1484 25.136 26.8684 27.64 28.3084 29.528C29.7484 31.4 31.8684 32.336 34.6684 32.336ZM63.0746 35.72C60.4986 35.72 58.2986 35.136 56.4746 33.968C54.6506 32.8 53.2506 31.184 52.2746 29.12C51.2986 27.056 50.8106 24.688 50.8106 22.016C50.8106 19.296 51.3066 16.912 52.2986 14.864C53.2906 12.816 54.6986 11.224 56.5226 10.088C58.3626 8.936 60.5466 8.36 63.0746 8.36C65.6666 8.36 67.8746 8.944 69.6986 10.112C71.5386 11.264 72.9386 12.872 73.8986 14.936C74.8746 16.984 75.3626 19.344 75.3626 22.016C75.3626 24.736 74.8746 27.128 73.8986 29.192C72.9226 31.24 71.5146 32.84 69.6746 33.992C67.8346 35.144 65.6346 35.72 63.0746 35.72ZM63.0746 32.336C65.9546 32.336 68.0986 31.384 69.5066 29.48C70.9146 27.56 71.6186 25.072 71.6186 22.016C71.6186 18.88 70.9066 16.384 69.4826 14.528C68.0746 12.672 65.9386 11.744 63.0746 11.744C61.1386 11.744 59.5386 12.184 58.2746 13.064C57.0266 13.928 56.0906 15.136 55.4666 16.688C54.8586 18.224 54.5546 20 54.5546 22.016C54.5546 25.136 55.2746 27.64 56.7146 29.528C58.1546 31.4 60.2746 32.336 63.0746 32.336ZM90.7129 35.72C88.2969 35.72 86.2329 35.12 84.5209 33.92C82.8089 32.704 81.4969 31.064 80.5849 29C79.6729 26.936 79.2169 24.608 79.2169 22.016C79.2169 19.44 79.6649 17.12 80.5609 15.056C81.4729 12.992 82.7769 11.36 84.4729 10.16C86.1689 8.96 88.2009 8.36 90.5689 8.36C93.0009 8.36 95.0489 8.952 96.7129 10.136C98.3769 11.32 99.6329 12.944 100.481 15.008C101.345 17.056 101.777 19.392 101.777 22.016C101.777 24.592 101.353 26.92 100.505 29C99.6569 31.064 98.4089 32.704 96.7609 33.92C95.1129 35.12 93.0969 35.72 90.7129 35.72ZM91.0729 32.432C92.9129 32.432 94.4329 31.984 95.6329 31.088C96.8329 30.192 97.7289 28.96 98.3209 27.392C98.9129 25.808 99.2089 24.016 99.2089 22.016C99.2089 19.984 98.9129 18.192 98.3209 16.64C97.7289 15.072 96.8329 13.848 95.6329 12.968C94.4489 12.088 92.9529 11.648 91.1449 11.648C89.2889 11.648 87.7529 12.104 86.5369 13.016C85.3209 13.928 84.4169 15.168 83.8249 16.736C83.2489 18.304 82.9609 20.064 82.9609 22.016C82.9609 23.984 83.2569 25.76 83.8489 27.344C84.4569 28.912 85.3609 30.152 86.5609 31.064C87.7609 31.976 89.2649 32.432 91.0729 32.432ZM99.2089 35V15.488H98.8249V0.439999H102.377V35H99.2089Z" fill="#3A3A3A"/>
<path d="M109.11 35V0.439999H129.918V6.224H114.894V14.84H127.038V20.6H114.894V35H109.11ZM134.235 35V9.08H139.347V15.392L138.723 14.576C139.043 13.712 139.467 12.928 139.995 12.224C140.539 11.504 141.187 10.912 141.939 10.448C142.579 10.016 143.283 9.68 144.051 9.44C144.835 9.184 145.635 9.032 146.451 8.984C147.267 8.92 148.059 8.952 148.827 9.08V14.48C148.059 14.256 147.171 14.184 146.163 14.264C145.171 14.344 144.275 14.624 143.475 15.104C142.675 15.536 142.019 16.088 141.507 16.76C141.011 17.432 140.643 18.2 140.403 19.064C140.163 19.912 140.043 20.832 140.043 21.824V35H134.235ZM164.722 35.72C162.098 35.72 159.794 35.152 157.81 34.016C155.826 32.88 154.274 31.304 153.154 29.288C152.05 27.272 151.498 24.952 151.498 22.328C151.498 19.496 152.042 17.04 153.13 14.96C154.218 12.864 155.73 11.24 157.666 10.088C159.602 8.936 161.842 8.36 164.386 8.36C167.074 8.36 169.354 8.992 171.226 10.256C173.114 11.504 174.514 13.272 175.426 15.56C176.338 17.848 176.682 20.544 176.458 23.648H170.722V21.536C170.706 18.72 170.21 16.664 169.234 15.368C168.258 14.072 166.722 13.424 164.626 13.424C162.258 13.424 160.498 14.16 159.346 15.632C158.194 17.088 157.618 19.224 157.618 22.04C157.618 24.664 158.194 26.696 159.346 28.136C160.498 29.576 162.178 30.296 164.386 30.296C165.81 30.296 167.034 29.984 168.058 29.36C169.098 28.72 169.898 27.8 170.458 26.6L176.17 28.328C175.178 30.664 173.642 32.48 171.562 33.776C169.498 35.072 167.218 35.72 164.722 35.72ZM155.794 23.648V19.28H173.626V23.648H155.794ZM191.821 35.72C188.621 35.72 186.021 35 184.021 33.56C182.021 32.12 180.805 30.096 180.373 27.488L186.277 26.576C186.581 27.856 187.253 28.864 188.293 29.6C189.333 30.336 190.645 30.704 192.229 30.704C193.621 30.704 194.693 30.432 195.445 29.888C196.213 29.328 196.597 28.568 196.597 27.608C196.597 27.016 196.453 26.544 196.165 26.192C195.893 25.824 195.285 25.472 194.341 25.136C193.397 24.8 191.949 24.376 189.997 23.864C187.821 23.288 186.093 22.672 184.813 22.016C183.533 21.344 182.613 20.552 182.053 19.64C181.493 18.728 181.213 17.624 181.213 16.328C181.213 14.712 181.637 13.304 182.485 12.104C183.333 10.904 184.517 9.984 186.037 9.344C187.557 8.688 189.349 8.36 191.413 8.36C193.429 8.36 195.213 8.672 196.765 9.296C198.333 9.92 199.597 10.808 200.557 11.96C201.517 13.112 202.109 14.464 202.333 16.016L196.429 17.072C196.285 15.968 195.781 15.096 194.917 14.456C194.069 13.816 192.933 13.456 191.509 13.376C190.149 13.296 189.053 13.504 188.221 14C187.389 14.48 186.973 15.16 186.973 16.04C186.973 16.536 187.141 16.96 187.477 17.312C187.813 17.664 188.485 18.016 189.493 18.368C190.517 18.72 192.037 19.152 194.053 19.664C196.117 20.192 197.765 20.8 198.997 21.488C200.245 22.16 201.141 22.968 201.685 23.912C202.245 24.856 202.525 26 202.525 27.344C202.525 29.952 201.573 32 199.669 33.488C197.781 34.976 195.165 35.72 191.821 35.72ZM225.71 35V22.52C225.71 21.704 225.654 20.8 225.542 19.808C225.43 18.816 225.166 17.864 224.75 16.952C224.35 16.024 223.742 15.264 222.926 14.672C222.126 14.08 221.038 13.784 219.662 13.784C218.926 13.784 218.198 13.904 217.478 14.144C216.758 14.384 216.102 14.8 215.51 15.392C214.934 15.968 214.47 16.768 214.118 17.792C213.766 18.8 213.59 20.096 213.59 21.68L210.158 20.216C210.158 18.008 210.582 16.008 211.43 14.216C212.294 12.424 213.558 11 215.222 9.944C216.886 8.872 218.934 8.336 221.366 8.336C223.286 8.336 224.87 8.656 226.118 9.296C227.366 9.936 228.358 10.752 229.094 11.744C229.83 12.736 230.374 13.792 230.726 14.912C231.078 16.032 231.302 17.096 231.398 18.104C231.51 19.096 231.566 19.904 231.566 20.528V35H225.71ZM207.734 35V0.439999H212.894V18.632H213.59V35H207.734Z" fill="#4EAC4C"/>
</svg>
